<?xml version="1.0" encoding="utf-8" standalone="no"?>
<!DOCTYPE svg PUBLIC "-//W3C//DTD SVG 1.1//EN"
  "http://www.w3.org/Graphics/SVG/1.1/DTD/svg11.dtd">
<svg xmlns:xlink="http://www.w3.org/1999/xlink" width="1296pt" height="360pt" viewBox="0 0 1296 360" xmlns="http://www.w3.org/2000/svg" version="1.1">
 <metadata>
  <rdf:RDF xmlns:dc="http://purl.org/dc/elements/1.1/" xmlns:cc="http://creativecommons.org/ns#" xmlns:rdf="http://www.w3.org/1999/02/22-rdf-syntax-ns#">
   <cc:Work>
    <dc:type rdf:resource="http://purl.org/dc/dcmitype/StillImage"/>
    <dc:date>2025-02-04T19:01:36.813120</dc:date>
    <dc:format>image/svg+xml</dc:format>
    <dc:creator>
     <cc:Agent>
      <dc:title>Matplotlib v3.10.0, https://matplotlib.org/</dc:title>
     </cc:Agent>
    </dc:creator>
   </cc:Work>
  </rdf:RDF>
 </metadata>
 <defs>
  <style type="text/css">*{stroke-linejoin: round; stroke-linecap: butt}</style>
 </defs>
 <g id="figure_1">
  <g id="patch_1">
   <path d="M 0 360 
L 1296 360 
L 1296 0 
L 0 0 
z
" style="fill: #ffffff"/>
  </g>
  <g id="axes_1">
   <g id="patch_2">
    <path d="M 162 320.4 
L 1166.4 320.4 
L 1166.4 43.2 
L 162 43.2 
z
" style="fill: #ffffff"/>
   </g>
   <g id="patch_3">
    <path d="M 207.654545 1958.4 
L 215.699399 1958.4 
L 215.699399 133.819102 
L 207.654545 133.819102 
z
" clip-path="url(#p0bb5499b28)" style="fill: #ff0000"/>
   </g>
   <g id="patch_4">
    <path d="M 211.676972 1958.4 
L 219.721826 1958.4 
L 219.721826 147.297656 
L 211.676972 147.297656 
z
" clip-path="url(#p0bb5499b28)" style="fill: #ff0000"/>
   </g>
   <g id="patch_5">
    <path d="M 215.699399 1958.4 
L 223.744253 1958.4 
L 223.744253 142.442227 
L 215.699399 142.442227 
z
" clip-path="url(#p0bb5499b28)" style="fill: #ff0000"/>
   </g>
   <g id="patch_6">
    <path d="M 219.721826 1958.4 
L 227.76668 1958.4 
L 227.76668 149.416523 
L 219.721826 149.416523 
z
" clip-path="url(#p0bb5499b28)" style="fill: #ff0000"/>
   </g>
   <g id="patch_7">
    <path d="M 223.744253 1958.4 
L 231.789107 1958.4 
L 231.789107 153.678867 
L 223.744253 153.678867 
z
" clip-path="url(#p0bb5499b28)" style="fill: #ff0000"/>
   </g>
   <g id="patch_8">
    <path d="M 227.76668 1958.4 
L 235.811534 1958.4 
L 235.811534 132.970078 
L 227.76668 132.970078 
z
" clip-path="url(#p0bb5499b28)" style="fill: #ff0000"/>
   </g>
   <g id="patch_9">
    <path d="M 231.789107 1958.4 
L 239.833961 1958.4 
L 239.833961 126.985078 
L 231.789107 126.985078 
z
" clip-path="url(#p0bb5499b28)" style="fill: #ff0000"/>
   </g>
   <g id="patch_10">
    <path d="M 235.811534 1958.4 
L 243.856388 1958.4 
L 243.856388 153.723164 
L 235.811534 153.723164 
z
" clip-path="url(#p0bb5499b28)" style="fill: #ff0000"/>
   </g>
   <g id="patch_11">
    <path d="M 239.833961 1958.4 
L 247.878815 1958.4 
L 247.878815 115.923164 
L 239.833961 115.923164 
z
" clip-path="url(#p0bb5499b28)" style="fill: #ff0000"/>
   </g>
   <g id="patch_12">
    <path d="M 243.856388 1958.4 
L 251.901241 1958.4 
L 251.901241 129.716719 
L 243.856388 129.716719 
z
" clip-path="url(#p0bb5499b28)" style="fill: #ff0000"/>
   </g>
   <g id="patch_13">
    <path d="M 288.103084 1958.4 
L 296.147938 1958.4 
L 296.147938 105.749648 
L 288.103084 105.749648 
z
" clip-path="url(#p0bb5499b28)" style="fill: #ff0000"/>
   </g>
   <g id="patch_14">
    <path d="M 292.125511 1958.4 
L 300.170364 1958.4 
L 300.170364 145.060664 
L 292.125511 145.060664 
z
" clip-path="url(#p0bb5499b28)" style="fill: #ff0000"/>
   </g>
   <g id="patch_15">
    <path d="M 296.147938 1958.4 
L 304.192791 1958.4 
L 304.192791 163.886836 
L 296.147938 163.886836 
z
" clip-path="url(#p0bb5499b28)" style="fill: #ff0000"/>
   </g>
   <g id="patch_16">
    <path d="M 300.170364 1958.4 
L 308.215218 1958.4 
L 308.215218 153.445078 
L 300.170364 153.445078 
z
" clip-path="url(#p0bb5499b28)" style="fill: #ff0000"/>
   </g>
   <g id="patch_17">
    <path d="M 304.192791 1958.4 
L 312.237645 1958.4 
L 312.237645 138.032227 
L 304.192791 138.032227 
z
" clip-path="url(#p0bb5499b28)" style="fill: #ff0000"/>
   </g>
   <g id="patch_18">
    <path d="M 308.215218 1958.4 
L 316.260072 1958.4 
L 316.260072 104.654531 
L 308.215218 104.654531 
z
" clip-path="url(#p0bb5499b28)" style="fill: #ff0000"/>
   </g>
   <g id="patch_19">
    <path d="M 312.237645 1958.4 
L 320.282499 1958.4 
L 320.282499 138.69668 
L 312.237645 138.69668 
z
" clip-path="url(#p0bb5499b28)" style="fill: #ff0000"/>
   </g>
   <g id="patch_20">
    <path d="M 316.260072 1958.4 
L 324.304926 1958.4 
L 324.304926 145.89 
L 316.260072 145.89 
z
" clip-path="url(#p0bb5499b28)" style="fill: #ff0000"/>
   </g>
   <g id="patch_21">
    <path d="M 320.282499 1958.4 
L 328.327353 1958.4 
L 328.327353 119.206055 
L 320.282499 119.206055 
z
" clip-path="url(#p0bb5499b28)" style="fill: #ff0000"/>
   </g>
   <g id="patch_22">
    <path d="M 324.304926 1958.4 
L 332.34978 1958.4 
L 332.34978 108.791367 
L 324.304926 108.791367 
z
" clip-path="url(#p0bb5499b28)" style="fill: #ff0000"/>
   </g>
   <g id="patch_23">
    <path d="M 368.551622 1958.4 
L 376.596476 1958.4 
L 376.596476 127.782422 
L 368.551622 127.782422 
z
" clip-path="url(#p0bb5499b28)" style="fill: #ff0000"/>
   </g>
   <g id="patch_24">
    <path d="M 372.574049 1958.4 
L 380.618903 1958.4 
L 380.618903 131.153906 
L 372.574049 131.153906 
z
" clip-path="url(#p0bb5499b28)" style="fill: #ff0000"/>
   </g>
   <g id="patch_25">
    <path d="M 376.596476 1958.4 
L 384.64133 1958.4 
L 384.64133 164.219063 
L 376.596476 164.219063 
z
" clip-path="url(#p0bb5499b28)" style="fill: #ff0000"/>
   </g>
   <g id="patch_26">
    <path d="M 380.618903 1958.4 
L 388.663757 1958.4 
L 388.663757 151.973438 
L 380.618903 151.973438 
z
" clip-path="url(#p0bb5499b28)" style="fill: #ff0000"/>
   </g>
   <g id="patch_27">
    <path d="M 384.64133 1958.4 
L 392.686183 1958.4 
L 392.686183 144.831797 
L 384.64133 144.831797 
z
" clip-path="url(#p0bb5499b28)" style="fill: #ff0000"/>
   </g>
   <g id="patch_28">
    <path d="M 388.663757 1958.4 
L 396.70861 1958.4 
L 396.70861 136.663945 
L 388.663757 136.663945 
z
" clip-path="url(#p0bb5499b28)" style="fill: #ff0000"/>
   </g>
   <g id="patch_29">
    <path d="M 392.686183 1958.4 
L 400.731037 1958.4 
L 400.731037 119.196211 
L 392.686183 119.196211 
z
" clip-path="url(#p0bb5499b28)" style="fill: #ff0000"/>
   </g>
   <g id="patch_30">
    <path d="M 396.70861 1958.4 
L 404.753464 1958.4 
L 404.753464 145.459336 
L 396.70861 145.459336 
z
" clip-path="url(#p0bb5499b28)" style="fill: #ff0000"/>
   </g>
   <g id="patch_31">
    <path d="M 400.731037 1958.4 
L 408.775891 1958.4 
L 408.775891 147.75293 
L 400.731037 147.75293 
z
" clip-path="url(#p0bb5499b28)" style="fill: #ff0000"/>
   </g>
   <g id="patch_32">
    <path d="M 404.753464 1958.4 
L 412.798318 1958.4 
L 412.798318 178.930547 
L 404.753464 178.930547 
z
" clip-path="url(#p0bb5499b28)" style="fill: #ff0000"/>
   </g>
   <g id="patch_33">
    <path d="M 449.00016 1958.4 
L 457.045014 1958.4 
L 457.045014 221.947734 
L 449.00016 221.947734 
z
" clip-path="url(#p0bb5499b28)" style="fill: #ff0000"/>
   </g>
   <g id="patch_34">
    <path d="M 453.022587 1958.4 
L 461.067441 1958.4 
L 461.067441 212.886563 
L 453.022587 212.886563 
z
" clip-path="url(#p0bb5499b28)" style="fill: #ff0000"/>
   </g>
   <g id="patch_35">
    <path d="M 457.045014 1958.4 
L 465.089868 1958.4 
L 465.089868 216.629648 
L 457.045014 216.629648 
z
" clip-path="url(#p0bb5499b28)" style="fill: #ff0000"/>
   </g>
   <g id="patch_36">
    <path d="M 461.067441 1958.4 
L 469.112295 1958.4 
L 469.112295 175.770703 
L 461.067441 175.770703 
z
" clip-path="url(#p0bb5499b28)" style="fill: #ff0000"/>
   </g>
   <g id="patch_37">
    <path d="M 465.089868 1958.4 
L 473.134722 1958.4 
L 473.134722 145.518398 
L 465.089868 145.518398 
z
" clip-path="url(#p0bb5499b28)" style="fill: #ff0000"/>
   </g>
   <g id="patch_38">
    <path d="M 469.112295 1958.4 
L 477.157149 1958.4 
L 477.157149 179.289844 
L 469.112295 179.289844 
z
" clip-path="url(#p0bb5499b28)" style="fill: #ff0000"/>
   </g>
   <g id="patch_39">
    <path d="M 473.134722 1958.4 
L 481.179575 1958.4 
L 481.179575 169.798008 
L 473.134722 169.798008 
z
" clip-path="url(#p0bb5499b28)" style="fill: #ff0000"/>
   </g>
   <g id="patch_40">
    <path d="M 477.157149 1958.4 
L 485.202002 1958.4 
L 485.202002 201.283242 
L 477.157149 201.283242 
z
" clip-path="url(#p0bb5499b28)" style="fill: #ff0000"/>
   </g>
   <g id="patch_41">
    <path d="M 481.179575 1958.4 
L 489.224429 1958.4 
L 489.224429 184.723594 
L 481.179575 184.723594 
z
" clip-path="url(#p0bb5499b28)" style="fill: #ff0000"/>
   </g>
   <g id="patch_42">
    <path d="M 485.202002 1958.4 
L 493.246856 1958.4 
L 493.246856 165.065625 
L 485.202002 165.065625 
z
" clip-path="url(#p0bb5499b28)" style="fill: #ff0000"/>
   </g>
   <g id="patch_43">
    <path d="M 529.448698 1958.4 
L 537.493552 1958.4 
L 537.493552 184.7925 
L 529.448698 184.7925 
z
" clip-path="url(#p0bb5499b28)" style="fill: #ff0000"/>
   </g>
   <g id="patch_44">
    <path d="M 533.471125 1958.4 
L 541.515979 1958.4 
L 541.515979 200.820586 
L 533.471125 200.820586 
z
" clip-path="url(#p0bb5499b28)" style="fill: #ff0000"/>
   </g>
   <g id="patch_45">
    <path d="M 537.493552 1958.4 
L 545.538406 1958.4 
L 545.538406 146.918672 
L 537.493552 146.918672 
z
" clip-path="url(#p0bb5499b28)" style="fill: #ff0000"/>
   </g>
   <g id="patch_46">
    <path d="M 541.515979 1958.4 
L 549.560833 1958.4 
L 549.560833 180.56707 
L 541.515979 180.56707 
z
" clip-path="url(#p0bb5499b28)" style="fill: #ff0000"/>
   </g>
   <g id="patch_47">
    <path d="M 545.538406 1958.4 
L 553.58326 1958.4 
L 553.58326 148.232812 
L 545.538406 148.232812 
z
" clip-path="url(#p0bb5499b28)" style="fill: #ff0000"/>
   </g>
   <g id="patch_48">
    <path d="M 549.560833 1958.4 
L 557.605687 1958.4 
L 557.605687 272.684883 
L 549.560833 272.684883 
z
" clip-path="url(#p0bb5499b28)" style="fill: #ff0000"/>
   </g>
   <g id="patch_49">
    <path d="M 553.58326 1958.4 
L 561.628114 1958.4 
L 561.628114 270.305156 
L 553.58326 270.305156 
z
" clip-path="url(#p0bb5499b28)" style="fill: #ff0000"/>
   </g>
   <g id="patch_50">
    <path d="M 557.605687 1958.4 
L 565.650541 1958.4 
L 565.650541 256.809375 
L 557.605687 256.809375 
z
" clip-path="url(#p0bb5499b28)" style="fill: #ff0000"/>
   </g>
   <g id="patch_51">
    <path d="M 561.628114 1958.4 
L 569.672968 1958.4 
L 569.672968 278.79293 
L 561.628114 278.79293 
z
" clip-path="url(#p0bb5499b28)" style="fill: #ff0000"/>
   </g>
   <g id="patch_52">
    <path d="M 565.650541 1958.4 
L 573.695394 1958.4 
L 573.695394 238.704258 
L 565.650541 238.704258 
z
" clip-path="url(#p0bb5499b28)" style="fill: #ff0000"/>
   </g>
   <g id="patch_53">
    <path d="M 609.897237 1958.4 
L 617.942091 1958.4 
L 617.942091 221.56875 
L 609.897237 221.56875 
z
" clip-path="url(#p0bb5499b28)" style="fill: #ff0000"/>
   </g>
   <g id="patch_54">
    <path d="M 613.919664 1958.4 
L 621.964517 1958.4 
L 621.964517 221.401406 
L 613.919664 221.401406 
z
" clip-path="url(#p0bb5499b28)" style="fill: #ff0000"/>
   </g>
   <g id="patch_55">
    <path d="M 617.942091 1958.4 
L 625.986944 1958.4 
L 625.986944 247.748203 
L 617.942091 247.748203 
z
" clip-path="url(#p0bb5499b28)" style="fill: #ff0000"/>
   </g>
   <g id="patch_56">
    <path d="M 621.964517 1958.4 
L 630.009371 1958.4 
L 630.009371 303.594258 
L 621.964517 303.594258 
z
" clip-path="url(#p0bb5499b28)" style="fill: #ff0000"/>
   </g>
   <g id="patch_57">
    <path d="M 625.986944 1958.4 
L 634.031798 1958.4 
L 634.031798 314.774297 
L 625.986944 314.774297 
z
" clip-path="url(#p0bb5499b28)" style="fill: #ff0000"/>
   </g>
   <g id="patch_58">
    <path d="M 630.009371 1958.4 
L 638.054225 1958.4 
L 638.054225 238.384336 
L 630.009371 238.384336 
z
" clip-path="url(#p0bb5499b28)" style="fill: #ff0000"/>
   </g>
   <g id="patch_59">
    <path d="M 634.031798 1958.4 
L 642.076652 1958.4 
L 642.076652 222.144609 
L 634.031798 222.144609 
z
" clip-path="url(#p0bb5499b28)" style="fill: #ff0000"/>
   </g>
   <g id="patch_60">
    <path d="M 638.054225 1958.4 
L 646.099079 1958.4 
L 646.099079 262.919883 
L 638.054225 262.919883 
z
" clip-path="url(#p0bb5499b28)" style="fill: #ff0000"/>
   </g>
   <g id="patch_61">
    <path d="M 642.076652 1958.4 
L 650.121506 1958.4 
L 650.121506 230.132812 
L 642.076652 230.132812 
z
" clip-path="url(#p0bb5499b28)" style="fill: #ff0000"/>
   </g>
   <g id="patch_62">
    <path d="M 646.099079 1958.4 
L 654.143933 1958.4 
L 654.143933 232.308281 
L 646.099079 232.308281 
z
" clip-path="url(#p0bb5499b28)" style="fill: #ff0000"/>
   </g>
   <g id="patch_63">
    <path d="M 690.345775 1958.4 
L 698.390629 1958.4 
L 698.390629 233.346797 
L 690.345775 233.346797 
z
" clip-path="url(#p0bb5499b28)" style="fill: #ff0000"/>
   </g>
   <g id="patch_64">
    <path d="M 694.368202 1958.4 
L 702.413056 1958.4 
L 702.413056 214.057969 
L 694.368202 214.057969 
z
" clip-path="url(#p0bb5499b28)" style="fill: #ff0000"/>
   </g>
   <g id="patch_65">
    <path d="M 698.390629 1958.4 
L 706.435483 1958.4 
L 706.435483 230.108203 
L 698.390629 230.108203 
z
" clip-path="url(#p0bb5499b28)" style="fill: #ff0000"/>
   </g>
   <g id="patch_66">
    <path d="M 702.413056 1958.4 
L 710.457909 1958.4 
L 710.457909 208.515938 
L 702.413056 208.515938 
z
" clip-path="url(#p0bb5499b28)" style="fill: #ff0000"/>
   </g>
   <g id="patch_67">
    <path d="M 706.435483 1958.4 
L 714.480336 1958.4 
L 714.480336 179.238164 
L 706.435483 179.238164 
z
" clip-path="url(#p0bb5499b28)" style="fill: #ff0000"/>
   </g>
   <g id="patch_68">
    <path d="M 710.457909 1958.4 
L 718.502763 1958.4 
L 718.502763 176.006953 
L 710.457909 176.006953 
z
" clip-path="url(#p0bb5499b28)" style="fill: #ff0000"/>
   </g>
   <g id="patch_69">
    <path d="M 714.480336 1958.4 
L 722.52519 1958.4 
L 722.52519 191.01375 
L 714.480336 191.01375 
z
" clip-path="url(#p0bb5499b28)" style="fill: #ff0000"/>
   </g>
   <g id="patch_70">
    <path d="M 718.502763 1958.4 
L 726.547617 1958.4 
L 726.547617 202.582617 
L 718.502763 202.582617 
z
" clip-path="url(#p0bb5499b28)" style="fill: #ff0000"/>
   </g>
   <g id="patch_71">
    <path d="M 722.52519 1958.4 
L 730.570044 1958.4 
L 730.570044 185.156719 
L 722.52519 185.156719 
z
" clip-path="url(#p0bb5499b28)" style="fill: #ff0000"/>
   </g>
   <g id="patch_72">
    <path d="M 726.547617 1958.4 
L 734.592471 1958.4 
L 734.592471 200.926406 
L 726.547617 200.926406 
z
" clip-path="url(#p0bb5499b28)" style="fill: #ff0000"/>
   </g>
   <g id="patch_73">
    <path d="M 770.794313 1958.4 
L 778.839167 1958.4 
L 778.839167 180.227461 
L 770.794313 180.227461 
z
" clip-path="url(#p0bb5499b28)" style="fill: #ff0000"/>
   </g>
   <g id="patch_74">
    <path d="M 774.81674 1958.4 
L 782.861594 1958.4 
L 782.861594 231.658594 
L 774.81674 231.658594 
z
" clip-path="url(#p0bb5499b28)" style="fill: #ff0000"/>
   </g>
   <g id="patch_75">
    <path d="M 778.839167 1958.4 
L 786.884021 1958.4 
L 786.884021 182.533359 
L 778.839167 182.533359 
z
" clip-path="url(#p0bb5499b28)" style="fill: #ff0000"/>
   </g>
   <g id="patch_76">
    <path d="M 782.861594 1958.4 
L 790.906448 1958.4 
L 790.906448 215.229375 
L 782.861594 215.229375 
z
" clip-path="url(#p0bb5499b28)" style="fill: #ff0000"/>
   </g>
   <g id="patch_77">
    <path d="M 786.884021 1958.4 
L 794.928875 1958.4 
L 794.928875 187.686563 
L 786.884021 187.686563 
z
" clip-path="url(#p0bb5499b28)" style="fill: #ff0000"/>
   </g>
   <g id="patch_78">
    <path d="M 790.906448 1958.4 
L 798.951302 1958.4 
L 798.951302 169.896445 
L 790.906448 169.896445 
z
" clip-path="url(#p0bb5499b28)" style="fill: #ff0000"/>
   </g>
   <g id="patch_79">
    <path d="M 794.928875 1958.4 
L 802.973728 1958.4 
L 802.973728 226.682578 
L 794.928875 226.682578 
z
" clip-path="url(#p0bb5499b28)" style="fill: #ff0000"/>
   </g>
   <g id="patch_80">
    <path d="M 798.951302 1958.4 
L 806.996155 1958.4 
L 806.996155 208.685742 
L 798.951302 208.685742 
z
" clip-path="url(#p0bb5499b28)" style="fill: #ff0000"/>
   </g>
   <g id="patch_81">
    <path d="M 802.973728 1958.4 
L 811.018582 1958.4 
L 811.018582 200.453906 
L 802.973728 200.453906 
z
" clip-path="url(#p0bb5499b28)" style="fill: #ff0000"/>
   </g>
   <g id="patch_82">
    <path d="M 806.996155 1958.4 
L 815.041009 1958.4 
L 815.041009 158.822227 
L 806.996155 158.822227 
z
" clip-path="url(#p0bb5499b28)" style="fill: #ff0000"/>
   </g>
   <g id="patch_83">
    <path d="M 851.242851 1958.4 
L 859.287705 1958.4 
L 859.287705 178.615547 
L 851.242851 178.615547 
z
" clip-path="url(#p0bb5499b28)" style="fill: #ff0000"/>
   </g>
   <g id="patch_84">
    <path d="M 855.265278 1958.4 
L 863.310132 1958.4 
L 863.310132 192.51 
L 855.265278 192.51 
z
" clip-path="url(#p0bb5499b28)" style="fill: #ff0000"/>
   </g>
   <g id="patch_85">
    <path d="M 859.287705 1958.4 
L 867.332559 1958.4 
L 867.332559 211.129453 
L 859.287705 211.129453 
z
" clip-path="url(#p0bb5499b28)" style="fill: #ff0000"/>
   </g>
   <g id="patch_86">
    <path d="M 863.310132 1958.4 
L 871.354986 1958.4 
L 871.354986 190.472344 
L 863.310132 190.472344 
z
" clip-path="url(#p0bb5499b28)" style="fill: #ff0000"/>
   </g>
   <g id="patch_87">
    <path d="M 867.332559 1958.4 
L 875.377413 1958.4 
L 875.377413 176.698477 
L 867.332559 176.698477 
z
" clip-path="url(#p0bb5499b28)" style="fill: #ff0000"/>
   </g>
   <g id="patch_88">
    <path d="M 871.354986 1958.4 
L 879.39984 1958.4 
L 879.39984 114.928945 
L 871.354986 114.928945 
z
" clip-path="url(#p0bb5499b28)" style="fill: #ff0000"/>
   </g>
   <g id="patch_89">
    <path d="M 875.377413 1958.4 
L 883.422267 1958.4 
L 883.422267 105.658594 
L 875.377413 105.658594 
z
" clip-path="url(#p0bb5499b28)" style="fill: #ff0000"/>
   </g>
   <g id="patch_90">
    <path d="M 879.39984 1958.4 
L 887.444694 1958.4 
L 887.444694 68.126836 
L 879.39984 68.126836 
z
" clip-path="url(#p0bb5499b28)" style="fill: #ff0000"/>
   </g>
   <g id="patch_91">
    <path d="M 883.422267 1958.4 
L 891.467121 1958.4 
L 891.467121 144.248555 
L 883.422267 144.248555 
z
" clip-path="url(#p0bb5499b28)" style="fill: #ff0000"/>
   </g>
   <g id="patch_92">
    <path d="M 887.444694 1958.4 
L 895.489547 1958.4 
L 895.489547 153.979102 
L 887.444694 153.979102 
z
" clip-path="url(#p0bb5499b28)" style="fill: #ff0000"/>
   </g>
   <g id="patch_93">
    <path d="M 931.69139 1958.4 
L 939.736243 1958.4 
L 939.736243 172.807734 
L 931.69139 172.807734 
z
" clip-path="url(#p0bb5499b28)" style="fill: #ff0000"/>
   </g>
   <g id="patch_94">
    <path d="M 935.713817 1958.4 
L 943.75867 1958.4 
L 943.75867 244.903359 
L 935.713817 244.903359 
z
" clip-path="url(#p0bb5499b28)" style="fill: #ff0000"/>
   </g>
   <g id="patch_95">
    <path d="M 939.736243 1958.4 
L 947.781097 1958.4 
L 947.781097 209.138555 
L 939.736243 209.138555 
z
" clip-path="url(#p0bb5499b28)" style="fill: #ff0000"/>
   </g>
   <g id="patch_96">
    <path d="M 943.75867 1958.4 
L 951.803524 1958.4 
L 951.803524 141.642422 
L 943.75867 141.642422 
z
" clip-path="url(#p0bb5499b28)" style="fill: #ff0000"/>
   </g>
   <g id="patch_97">
    <path d="M 947.781097 1958.4 
L 955.825951 1958.4 
L 955.825951 138.081445 
L 947.781097 138.081445 
z
" clip-path="url(#p0bb5499b28)" style="fill: #ff0000"/>
   </g>
   <g id="patch_98">
    <path d="M 951.803524 1958.4 
L 959.848378 1958.4 
L 959.848378 143.729297 
L 951.803524 143.729297 
z
" clip-path="url(#p0bb5499b28)" style="fill: #ff0000"/>
   </g>
   <g id="patch_99">
    <path d="M 955.825951 1958.4 
L 963.870805 1958.4 
L 963.870805 160.840195 
L 955.825951 160.840195 
z
" clip-path="url(#p0bb5499b28)" style="fill: #ff0000"/>
   </g>
   <g id="patch_100">
    <path d="M 959.848378 1958.4 
L 967.893232 1958.4 
L 967.893232 185.188711 
L 959.848378 185.188711 
z
" clip-path="url(#p0bb5499b28)" style="fill: #ff0000"/>
   </g>
   <g id="patch_101">
    <path d="M 963.870805 1958.4 
L 971.915659 1958.4 
L 971.915659 135.834609 
L 963.870805 135.834609 
z
" clip-path="url(#p0bb5499b28)" style="fill: #ff0000"/>
   </g>
   <g id="patch_102">
    <path d="M 967.893232 1958.4 
L 975.938086 1958.4 
L 975.938086 113.878125 
L 967.893232 113.878125 
z
" clip-path="url(#p0bb5499b28)" style="fill: #ff0000"/>
   </g>
   <g id="patch_103">
    <path d="M 1012.139928 1958.4 
L 1020.184782 1958.4 
L 1020.184782 116.164336 
L 1012.139928 116.164336 
z
" clip-path="url(#p0bb5499b28)" style="fill: #ff0000"/>
   </g>
   <g id="patch_104">
    <path d="M 1016.162355 1958.4 
L 1024.207209 1958.4 
L 1024.207209 136.115156 
L 1016.162355 136.115156 
z
" clip-path="url(#p0bb5499b28)" style="fill: #ff0000"/>
   </g>
   <g id="patch_105">
    <path d="M 1020.184782 1958.4 
L 1028.229636 1958.4 
L 1028.229636 160.434141 
L 1020.184782 160.434141 
z
" clip-path="url(#p0bb5499b28)" style="fill: #ff0000"/>
   </g>
   <g id="patch_106">
    <path d="M 1024.207209 1958.4 
L 1032.252062 1958.4 
L 1032.252062 158.987109 
L 1024.207209 158.987109 
z
" clip-path="url(#p0bb5499b28)" style="fill: #ff0000"/>
   </g>
   <g id="patch_107">
    <path d="M 1028.229636 1958.4 
L 1036.274489 1958.4 
L 1036.274489 119.174062 
L 1028.229636 119.174062 
z
" clip-path="url(#p0bb5499b28)" style="fill: #ff0000"/>
   </g>
   <g id="patch_108">
    <path d="M 1032.252062 1958.4 
L 1040.296916 1958.4 
L 1040.296916 119.501367 
L 1032.252062 119.501367 
z
" clip-path="url(#p0bb5499b28)" style="fill: #ff0000"/>
   </g>
   <g id="patch_109">
    <path d="M 1036.274489 1958.4 
L 1044.319343 1958.4 
L 1044.319343 168.766875 
L 1036.274489 168.766875 
z
" clip-path="url(#p0bb5499b28)" style="fill: #ff0000"/>
   </g>
   <g id="patch_110">
    <path d="M 1040.296916 1958.4 
L 1048.34177 1958.4 
L 1048.34177 93.134883 
L 1040.296916 93.134883 
z
" clip-path="url(#p0bb5499b28)" style="fill: #ff0000"/>
   </g>
   <g id="patch_111">
    <path d="M 1044.319343 1958.4 
L 1052.364197 1958.4 
L 1052.364197 133.801875 
L 1044.319343 133.801875 
z
" clip-path="url(#p0bb5499b28)" style="fill: #ff0000"/>
   </g>
   <g id="patch_112">
    <path d="M 1048.34177 1958.4 
L 1056.386624 1958.4 
L 1056.386624 167.627461 
L 1048.34177 167.627461 
z
" clip-path="url(#p0bb5499b28)" style="fill: #ff0000"/>
   </g>
   <g id="patch_113">
    <path d="M 1092.588466 1958.4 
L 1100.63332 1958.4 
L 1100.63332 92.748516 
L 1092.588466 92.748516 
z
" clip-path="url(#p0bb5499b28)" style="fill: #ff0000"/>
   </g>
   <g id="patch_114">
    <path d="M 1096.610893 1958.4 
L 1104.655747 1958.4 
L 1104.655747 116.078203 
L 1096.610893 116.078203 
z
" clip-path="url(#p0bb5499b28)" style="fill: #ff0000"/>
   </g>
   <g id="patch_115">
    <path d="M 1100.63332 1958.4 
L 1108.678174 1958.4 
L 1108.678174 157.586836 
L 1100.63332 157.586836 
z
" clip-path="url(#p0bb5499b28)" style="fill: #ff0000"/>
   </g>
   <g id="patch_116">
    <path d="M 1104.655747 1958.4 
L 1112.700601 1958.4 
L 1112.700601 174.700195 
L 1104.655747 174.700195 
z
" clip-path="url(#p0bb5499b28)" style="fill: #ff0000"/>
   </g>
   <g id="patch_117">
    <path d="M 1108.678174 1958.4 
L 1116.723028 1958.4 
L 1116.723028 134.055352 
L 1108.678174 134.055352 
z
" clip-path="url(#p0bb5499b28)" style="fill: #ff0000"/>
   </g>
   <g id="patch_118">
    <path d="M 1112.700601 1958.4 
L 1120.745455 1958.4 
L 1120.745455 176.951953 
L 1112.700601 176.951953 
z
" clip-path="url(#p0bb5499b28)" style="fill: #ff0000"/>
   </g>
   <g id="matplotlib.axis_1">
    <g id="xtick_1">
     <g id="line2d_1">
      <defs>
       <path id="mba471f088f" d="M 0 0 
L 0 3.5 
" style="stroke: #000000; stroke-width: 0.8"/>
      </defs>
      <g>
       <use xlink:href="#mba471f088f" x="207.654545" y="320.4" style="stroke: #000000; stroke-width: 0.8"/>
      </g>
     </g>
     <g id="text_1">
      <!-- 00'00" -->
      <g transform="translate(191.255327 334.998438) scale(0.1 -0.1)">
       <defs>
        <path id="DejaVuSans-30" d="M 2034 4250 
Q 1547 4250 1301 3770 
Q 1056 3291 1056 2328 
Q 1056 1369 1301 889 
Q 1547 409 2034 409 
Q 2525 409 2770 889 
Q 3016 1369 3016 2328 
Q 3016 3291 2770 3770 
Q 2525 4250 2034 4250 
z
M 2034 4750 
Q 2819 4750 3233 4129 
Q 3647 3509 3647 2328 
Q 3647 1150 3233 529 
Q 2819 -91 2034 -91 
Q 1250 -91 836 529 
Q 422 1150 422 2328 
Q 422 3509 836 4129 
Q 1250 4750 2034 4750 
z
" transform="scale(0.015625)"/>
        <path id="DejaVuSans-27" d="M 1147 4666 
L 1147 2931 
L 616 2931 
L 616 4666 
L 1147 4666 
z
" transform="scale(0.015625)"/>
        <path id="DejaVuSans-22" d="M 1147 4666 
L 1147 2931 
L 616 2931 
L 616 4666 
L 1147 4666 
z
M 2328 4666 
L 2328 2931 
L 1797 2931 
L 1797 4666 
L 2328 4666 
z
" transform="scale(0.015625)"/>
       </defs>
       <use xlink:href="#DejaVuSans-30"/>
       <use xlink:href="#DejaVuSans-30" transform="translate(63.623047 0)"/>
       <use xlink:href="#DejaVuSans-27" transform="translate(127.246094 0)"/>
       <use xlink:href="#DejaVuSans-30" transform="translate(154.736328 0)"/>
       <use xlink:href="#DejaVuSans-30" transform="translate(218.359375 0)"/>
       <use xlink:href="#DejaVuSans-22" transform="translate(281.982422 0)"/>
      </g>
     </g>
    </g>
    <g id="xtick_2">
     <g id="line2d_2">
      <g>
       <use xlink:href="#mba471f088f" x="247.878815" y="320.4" style="stroke: #000000; stroke-width: 0.8"/>
      </g>
     </g>
     <g id="text_2">
      <!-- 00'10" -->
      <g transform="translate(231.479596 334.998438) scale(0.1 -0.1)">
       <defs>
        <path id="DejaVuSans-31" d="M 794 531 
L 1825 531 
L 1825 4091 
L 703 3866 
L 703 4441 
L 1819 4666 
L 2450 4666 
L 2450 531 
L 3481 531 
L 3481 0 
L 794 0 
L 794 531 
z
" transform="scale(0.015625)"/>
       </defs>
       <use xlink:href="#DejaVuSans-30"/>
       <use xlink:href="#DejaVuSans-30" transform="translate(63.623047 0)"/>
       <use xlink:href="#DejaVuSans-27" transform="translate(127.246094 0)"/>
       <use xlink:href="#DejaVuSans-31" transform="translate(154.736328 0)"/>
       <use xlink:href="#DejaVuSans-30" transform="translate(218.359375 0)"/>
       <use xlink:href="#DejaVuSans-22" transform="translate(281.982422 0)"/>
      </g>
     </g>
    </g>
    <g id="xtick_3">
     <g id="line2d_3">
      <g>
       <use xlink:href="#mba471f088f" x="288.103084" y="320.4" style="stroke: #000000; stroke-width: 0.8"/>
      </g>
     </g>
     <g id="text_3">
      <!-- 00'20" -->
      <g transform="translate(271.703865 334.998438) scale(0.1 -0.1)">
       <defs>
        <path id="DejaVuSans-32" d="M 1228 531 
L 3431 531 
L 3431 0 
L 469 0 
L 469 531 
Q 828 903 1448 1529 
Q 2069 2156 2228 2338 
Q 2531 2678 2651 2914 
Q 2772 3150 2772 3378 
Q 2772 3750 2511 3984 
Q 2250 4219 1831 4219 
Q 1534 4219 1204 4116 
Q 875 4013 500 3803 
L 500 4441 
Q 881 4594 1212 4672 
Q 1544 4750 1819 4750 
Q 2544 4750 2975 4387 
Q 3406 4025 3406 3419 
Q 3406 3131 3298 2873 
Q 3191 2616 2906 2266 
Q 2828 2175 2409 1742 
Q 1991 1309 1228 531 
z
" transform="scale(0.015625)"/>
       </defs>
       <use xlink:href="#DejaVuSans-30"/>
       <use xlink:href="#DejaVuSans-30" transform="translate(63.623047 0)"/>
       <use xlink:href="#DejaVuSans-27" transform="translate(127.246094 0)"/>
       <use xlink:href="#DejaVuSans-32" transform="translate(154.736328 0)"/>
       <use xlink:href="#DejaVuSans-30" transform="translate(218.359375 0)"/>
       <use xlink:href="#DejaVuSans-22" transform="translate(281.982422 0)"/>
      </g>
     </g>
    </g>
    <g id="xtick_4">
     <g id="line2d_4">
      <g>
       <use xlink:href="#mba471f088f" x="328.327353" y="320.4" style="stroke: #000000; stroke-width: 0.8"/>
      </g>
     </g>
     <g id="text_4">
      <!-- 00'30" -->
      <g transform="translate(311.928134 334.998438) scale(0.1 -0.1)">
       <defs>
        <path id="DejaVuSans-33" d="M 2597 2516 
Q 3050 2419 3304 2112 
Q 3559 1806 3559 1356 
Q 3559 666 3084 287 
Q 2609 -91 1734 -91 
Q 1441 -91 1130 -33 
Q 819 25 488 141 
L 488 750 
Q 750 597 1062 519 
Q 1375 441 1716 441 
Q 2309 441 2620 675 
Q 2931 909 2931 1356 
Q 2931 1769 2642 2001 
Q 2353 2234 1838 2234 
L 1294 2234 
L 1294 2753 
L 1863 2753 
Q 2328 2753 2575 2939 
Q 2822 3125 2822 3475 
Q 2822 3834 2567 4026 
Q 2313 4219 1838 4219 
Q 1578 4219 1281 4162 
Q 984 4106 628 3988 
L 628 4550 
Q 988 4650 1302 4700 
Q 1616 4750 1894 4750 
Q 2613 4750 3031 4423 
Q 3450 4097 3450 3541 
Q 3450 3153 3228 2886 
Q 3006 2619 2597 2516 
z
" transform="scale(0.015625)"/>
       </defs>
       <use xlink:href="#DejaVuSans-30"/>
       <use xlink:href="#DejaVuSans-30" transform="translate(63.623047 0)"/>
       <use xlink:href="#DejaVuSans-27" transform="translate(127.246094 0)"/>
       <use xlink:href="#DejaVuSans-33" transform="translate(154.736328 0)"/>
       <use xlink:href="#DejaVuSans-30" transform="translate(218.359375 0)"/>
       <use xlink:href="#DejaVuSans-22" transform="translate(281.982422 0)"/>
      </g>
     </g>
    </g>
    <g id="xtick_5">
     <g id="line2d_5">
      <g>
       <use xlink:href="#mba471f088f" x="368.551622" y="320.4" style="stroke: #000000; stroke-width: 0.8"/>
      </g>
     </g>
     <g id="text_5">
      <!-- 00'40" -->
      <g transform="translate(352.152403 334.998438) scale(0.1 -0.1)">
       <defs>
        <path id="DejaVuSans-34" d="M 2419 4116 
L 825 1625 
L 2419 1625 
L 2419 4116 
z
M 2253 4666 
L 3047 4666 
L 3047 1625 
L 3713 1625 
L 3713 1100 
L 3047 1100 
L 3047 0 
L 2419 0 
L 2419 1100 
L 313 1100 
L 313 1709 
L 2253 4666 
z
" transform="scale(0.015625)"/>
       </defs>
       <use xlink:href="#DejaVuSans-30"/>
       <use xlink:href="#DejaVuSans-30" transform="translate(63.623047 0)"/>
       <use xlink:href="#DejaVuSans-27" transform="translate(127.246094 0)"/>
       <use xlink:href="#DejaVuSans-34" transform="translate(154.736328 0)"/>
       <use xlink:href="#DejaVuSans-30" transform="translate(218.359375 0)"/>
       <use xlink:href="#DejaVuSans-22" transform="translate(281.982422 0)"/>
      </g>
     </g>
    </g>
    <g id="xtick_6">
     <g id="line2d_6">
      <g>
       <use xlink:href="#mba471f088f" x="408.775891" y="320.4" style="stroke: #000000; stroke-width: 0.8"/>
      </g>
     </g>
     <g id="text_6">
      <!-- 00'50" -->
      <g transform="translate(392.376672 334.998438) scale(0.1 -0.1)">
       <defs>
        <path id="DejaVuSans-35" d="M 691 4666 
L 3169 4666 
L 3169 4134 
L 1269 4134 
L 1269 2991 
Q 1406 3038 1543 3061 
Q 1681 3084 1819 3084 
Q 2600 3084 3056 2656 
Q 3513 2228 3513 1497 
Q 3513 744 3044 326 
Q 2575 -91 1722 -91 
Q 1428 -91 1123 -41 
Q 819 9 494 109 
L 494 744 
Q 775 591 1075 516 
Q 1375 441 1709 441 
Q 2250 441 2565 725 
Q 2881 1009 2881 1497 
Q 2881 1984 2565 2268 
Q 2250 2553 1709 2553 
Q 1456 2553 1204 2497 
Q 953 2441 691 2322 
L 691 4666 
z
" transform="scale(0.015625)"/>
       </defs>
       <use xlink:href="#DejaVuSans-30"/>
       <use xlink:href="#DejaVuSans-30" transform="translate(63.623047 0)"/>
       <use xlink:href="#DejaVuSans-27" transform="translate(127.246094 0)"/>
       <use xlink:href="#DejaVuSans-35" transform="translate(154.736328 0)"/>
       <use xlink:href="#DejaVuSans-30" transform="translate(218.359375 0)"/>
       <use xlink:href="#DejaVuSans-22" transform="translate(281.982422 0)"/>
      </g>
     </g>
    </g>
    <g id="xtick_7">
     <g id="line2d_7">
      <g>
       <use xlink:href="#mba471f088f" x="449.00016" y="320.4" style="stroke: #000000; stroke-width: 0.8"/>
      </g>
     </g>
     <g id="text_7">
      <!-- 01'00" -->
      <g transform="translate(432.600941 334.998438) scale(0.1 -0.1)">
       <use xlink:href="#DejaVuSans-30"/>
       <use xlink:href="#DejaVuSans-31" transform="translate(63.623047 0)"/>
       <use xlink:href="#DejaVuSans-27" transform="translate(127.246094 0)"/>
       <use xlink:href="#DejaVuSans-30" transform="translate(154.736328 0)"/>
       <use xlink:href="#DejaVuSans-30" transform="translate(218.359375 0)"/>
       <use xlink:href="#DejaVuSans-22" transform="translate(281.982422 0)"/>
      </g>
     </g>
    </g>
    <g id="xtick_8">
     <g id="line2d_8">
      <g>
       <use xlink:href="#mba471f088f" x="489.224429" y="320.4" style="stroke: #000000; stroke-width: 0.8"/>
      </g>
     </g>
     <g id="text_8">
      <!-- 01'10" -->
      <g transform="translate(472.825211 334.998438) scale(0.1 -0.1)">
       <use xlink:href="#DejaVuSans-30"/>
       <use xlink:href="#DejaVuSans-31" transform="translate(63.623047 0)"/>
       <use xlink:href="#DejaVuSans-27" transform="translate(127.246094 0)"/>
       <use xlink:href="#DejaVuSans-31" transform="translate(154.736328 0)"/>
       <use xlink:href="#DejaVuSans-30" transform="translate(218.359375 0)"/>
       <use xlink:href="#DejaVuSans-22" transform="translate(281.982422 0)"/>
      </g>
     </g>
    </g>
    <g id="xtick_9">
     <g id="line2d_9">
      <g>
       <use xlink:href="#mba471f088f" x="529.448698" y="320.4" style="stroke: #000000; stroke-width: 0.8"/>
      </g>
     </g>
     <g id="text_9">
      <!-- 01'20" -->
      <g transform="translate(513.04948 334.998438) scale(0.1 -0.1)">
       <use xlink:href="#DejaVuSans-30"/>
       <use xlink:href="#DejaVuSans-31" transform="translate(63.623047 0)"/>
       <use xlink:href="#DejaVuSans-27" transform="translate(127.246094 0)"/>
       <use xlink:href="#DejaVuSans-32" transform="translate(154.736328 0)"/>
       <use xlink:href="#DejaVuSans-30" transform="translate(218.359375 0)"/>
       <use xlink:href="#DejaVuSans-22" transform="translate(281.982422 0)"/>
      </g>
     </g>
    </g>
    <g id="xtick_10">
     <g id="line2d_10">
      <g>
       <use xlink:href="#mba471f088f" x="569.672968" y="320.4" style="stroke: #000000; stroke-width: 0.8"/>
      </g>
     </g>
     <g id="text_10">
      <!-- 01'30" -->
      <g transform="translate(553.273749 334.998438) scale(0.1 -0.1)">
       <use xlink:href="#DejaVuSans-30"/>
       <use xlink:href="#DejaVuSans-31" transform="translate(63.623047 0)"/>
       <use xlink:href="#DejaVuSans-27" transform="translate(127.246094 0)"/>
       <use xlink:href="#DejaVuSans-33" transform="translate(154.736328 0)"/>
       <use xlink:href="#DejaVuSans-30" transform="translate(218.359375 0)"/>
       <use xlink:href="#DejaVuSans-22" transform="translate(281.982422 0)"/>
      </g>
     </g>
    </g>
    <g id="xtick_11">
     <g id="line2d_11">
      <g>
       <use xlink:href="#mba471f088f" x="609.897237" y="320.4" style="stroke: #000000; stroke-width: 0.8"/>
      </g>
     </g>
     <g id="text_11">
      <!-- 01'40" -->
      <g transform="translate(593.498018 334.998438) scale(0.1 -0.1)">
       <use xlink:href="#DejaVuSans-30"/>
       <use xlink:href="#DejaVuSans-31" transform="translate(63.623047 0)"/>
       <use xlink:href="#DejaVuSans-27" transform="translate(127.246094 0)"/>
       <use xlink:href="#DejaVuSans-34" transform="translate(154.736328 0)"/>
       <use xlink:href="#DejaVuSans-30" transform="translate(218.359375 0)"/>
       <use xlink:href="#DejaVuSans-22" transform="translate(281.982422 0)"/>
      </g>
     </g>
    </g>
    <g id="xtick_12">
     <g id="line2d_12">
      <g>
       <use xlink:href="#mba471f088f" x="650.121506" y="320.4" style="stroke: #000000; stroke-width: 0.8"/>
      </g>
     </g>
     <g id="text_12">
      <!-- 01'50" -->
      <g transform="translate(633.722287 334.998438) scale(0.1 -0.1)">
       <use xlink:href="#DejaVuSans-30"/>
       <use xlink:href="#DejaVuSans-31" transform="translate(63.623047 0)"/>
       <use xlink:href="#DejaVuSans-27" transform="translate(127.246094 0)"/>
       <use xlink:href="#DejaVuSans-35" transform="translate(154.736328 0)"/>
       <use xlink:href="#DejaVuSans-30" transform="translate(218.359375 0)"/>
       <use xlink:href="#DejaVuSans-22" transform="translate(281.982422 0)"/>
      </g>
     </g>
    </g>
    <g id="xtick_13">
     <g id="line2d_13">
      <g>
       <use xlink:href="#mba471f088f" x="690.345775" y="320.4" style="stroke: #000000; stroke-width: 0.8"/>
      </g>
     </g>
     <g id="text_13">
      <!-- 02'00" -->
      <g transform="translate(673.946556 334.998438) scale(0.1 -0.1)">
       <use xlink:href="#DejaVuSans-30"/>
       <use xlink:href="#DejaVuSans-32" transform="translate(63.623047 0)"/>
       <use xlink:href="#DejaVuSans-27" transform="translate(127.246094 0)"/>
       <use xlink:href="#DejaVuSans-30" transform="translate(154.736328 0)"/>
       <use xlink:href="#DejaVuSans-30" transform="translate(218.359375 0)"/>
       <use xlink:href="#DejaVuSans-22" transform="translate(281.982422 0)"/>
      </g>
     </g>
    </g>
    <g id="xtick_14">
     <g id="line2d_14">
      <g>
       <use xlink:href="#mba471f088f" x="730.570044" y="320.4" style="stroke: #000000; stroke-width: 0.8"/>
      </g>
     </g>
     <g id="text_14">
      <!-- 02'10" -->
      <g transform="translate(714.170825 334.998438) scale(0.1 -0.1)">
       <use xlink:href="#DejaVuSans-30"/>
       <use xlink:href="#DejaVuSans-32" transform="translate(63.623047 0)"/>
       <use xlink:href="#DejaVuSans-27" transform="translate(127.246094 0)"/>
       <use xlink:href="#DejaVuSans-31" transform="translate(154.736328 0)"/>
       <use xlink:href="#DejaVuSans-30" transform="translate(218.359375 0)"/>
       <use xlink:href="#DejaVuSans-22" transform="translate(281.982422 0)"/>
      </g>
     </g>
    </g>
    <g id="xtick_15">
     <g id="line2d_15">
      <g>
       <use xlink:href="#mba471f088f" x="770.794313" y="320.4" style="stroke: #000000; stroke-width: 0.8"/>
      </g>
     </g>
     <g id="text_15">
      <!-- 02'20" -->
      <g transform="translate(754.395094 334.998438) scale(0.1 -0.1)">
       <use xlink:href="#DejaVuSans-30"/>
       <use xlink:href="#DejaVuSans-32" transform="translate(63.623047 0)"/>
       <use xlink:href="#DejaVuSans-27" transform="translate(127.246094 0)"/>
       <use xlink:href="#DejaVuSans-32" transform="translate(154.736328 0)"/>
       <use xlink:href="#DejaVuSans-30" transform="translate(218.359375 0)"/>
       <use xlink:href="#DejaVuSans-22" transform="translate(281.982422 0)"/>
      </g>
     </g>
    </g>
    <g id="xtick_16">
     <g id="line2d_16">
      <g>
       <use xlink:href="#mba471f088f" x="811.018582" y="320.4" style="stroke: #000000; stroke-width: 0.8"/>
      </g>
     </g>
     <g id="text_16">
      <!-- 02'30" -->
      <g transform="translate(794.619364 334.998438) scale(0.1 -0.1)">
       <use xlink:href="#DejaVuSans-30"/>
       <use xlink:href="#DejaVuSans-32" transform="translate(63.623047 0)"/>
       <use xlink:href="#DejaVuSans-27" transform="translate(127.246094 0)"/>
       <use xlink:href="#DejaVuSans-33" transform="translate(154.736328 0)"/>
       <use xlink:href="#DejaVuSans-30" transform="translate(218.359375 0)"/>
       <use xlink:href="#DejaVuSans-22" transform="translate(281.982422 0)"/>
      </g>
     </g>
    </g>
    <g id="xtick_17">
     <g id="line2d_17">
      <g>
       <use xlink:href="#mba471f088f" x="851.242851" y="320.4" style="stroke: #000000; stroke-width: 0.8"/>
      </g>
     </g>
     <g id="text_17">
      <!-- 02'40" -->
      <g transform="translate(834.843633 334.998438) scale(0.1 -0.1)">
       <use xlink:href="#DejaVuSans-30"/>
       <use xlink:href="#DejaVuSans-32" transform="translate(63.623047 0)"/>
       <use xlink:href="#DejaVuSans-27" transform="translate(127.246094 0)"/>
       <use xlink:href="#DejaVuSans-34" transform="translate(154.736328 0)"/>
       <use xlink:href="#DejaVuSans-30" transform="translate(218.359375 0)"/>
       <use xlink:href="#DejaVuSans-22" transform="translate(281.982422 0)"/>
      </g>
     </g>
    </g>
    <g id="xtick_18">
     <g id="line2d_18">
      <g>
       <use xlink:href="#mba471f088f" x="891.467121" y="320.4" style="stroke: #000000; stroke-width: 0.8"/>
      </g>
     </g>
     <g id="text_18">
      <!-- 02'50" -->
      <g transform="translate(875.067902 334.998438) scale(0.1 -0.1)">
       <use xlink:href="#DejaVuSans-30"/>
       <use xlink:href="#DejaVuSans-32" transform="translate(63.623047 0)"/>
       <use xlink:href="#DejaVuSans-27" transform="translate(127.246094 0)"/>
       <use xlink:href="#DejaVuSans-35" transform="translate(154.736328 0)"/>
       <use xlink:href="#DejaVuSans-30" transform="translate(218.359375 0)"/>
       <use xlink:href="#DejaVuSans-22" transform="translate(281.982422 0)"/>
      </g>
     </g>
    </g>
    <g id="xtick_19">
     <g id="line2d_19">
      <g>
       <use xlink:href="#mba471f088f" x="931.69139" y="320.4" style="stroke: #000000; stroke-width: 0.8"/>
      </g>
     </g>
     <g id="text_19">
      <!-- 03'00" -->
      <g transform="translate(915.292171 334.998438) scale(0.1 -0.1)">
       <use xlink:href="#DejaVuSans-30"/>
       <use xlink:href="#DejaVuSans-33" transform="translate(63.623047 0)"/>
       <use xlink:href="#DejaVuSans-27" transform="translate(127.246094 0)"/>
       <use xlink:href="#DejaVuSans-30" transform="translate(154.736328 0)"/>
       <use xlink:href="#DejaVuSans-30" transform="translate(218.359375 0)"/>
       <use xlink:href="#DejaVuSans-22" transform="translate(281.982422 0)"/>
      </g>
     </g>
    </g>
    <g id="xtick_20">
     <g id="line2d_20">
      <g>
       <use xlink:href="#mba471f088f" x="971.915659" y="320.4" style="stroke: #000000; stroke-width: 0.8"/>
      </g>
     </g>
     <g id="text_20">
      <!-- 03'10" -->
      <g transform="translate(955.51644 334.998438) scale(0.1 -0.1)">
       <use xlink:href="#DejaVuSans-30"/>
       <use xlink:href="#DejaVuSans-33" transform="translate(63.623047 0)"/>
       <use xlink:href="#DejaVuSans-27" transform="translate(127.246094 0)"/>
       <use xlink:href="#DejaVuSans-31" transform="translate(154.736328 0)"/>
       <use xlink:href="#DejaVuSans-30" transform="translate(218.359375 0)"/>
       <use xlink:href="#DejaVuSans-22" transform="translate(281.982422 0)"/>
      </g>
     </g>
    </g>
    <g id="xtick_21">
     <g id="line2d_21">
      <g>
       <use xlink:href="#mba471f088f" x="1012.139928" y="320.4" style="stroke: #000000; stroke-width: 0.8"/>
      </g>
     </g>
     <g id="text_21">
      <!-- 03'20" -->
      <g transform="translate(995.740709 334.998438) scale(0.1 -0.1)">
       <use xlink:href="#DejaVuSans-30"/>
       <use xlink:href="#DejaVuSans-33" transform="translate(63.623047 0)"/>
       <use xlink:href="#DejaVuSans-27" transform="translate(127.246094 0)"/>
       <use xlink:href="#DejaVuSans-32" transform="translate(154.736328 0)"/>
       <use xlink:href="#DejaVuSans-30" transform="translate(218.359375 0)"/>
       <use xlink:href="#DejaVuSans-22" transform="translate(281.982422 0)"/>
      </g>
     </g>
    </g>
    <g id="xtick_22">
     <g id="line2d_22">
      <g>
       <use xlink:href="#mba471f088f" x="1052.364197" y="320.4" style="stroke: #000000; stroke-width: 0.8"/>
      </g>
     </g>
     <g id="text_22">
      <!-- 03'30" -->
      <g transform="translate(1035.964978 334.998438) scale(0.1 -0.1)">
       <use xlink:href="#DejaVuSans-30"/>
       <use xlink:href="#DejaVuSans-33" transform="translate(63.623047 0)"/>
       <use xlink:href="#DejaVuSans-27" transform="translate(127.246094 0)"/>
       <use xlink:href="#DejaVuSans-33" transform="translate(154.736328 0)"/>
       <use xlink:href="#DejaVuSans-30" transform="translate(218.359375 0)"/>
       <use xlink:href="#DejaVuSans-22" transform="translate(281.982422 0)"/>
      </g>
     </g>
    </g>
    <g id="xtick_23">
     <g id="line2d_23">
      <g>
       <use xlink:href="#mba471f088f" x="1092.588466" y="320.4" style="stroke: #000000; stroke-width: 0.8"/>
      </g>
     </g>
     <g id="text_23">
      <!-- 03'40" -->
      <g transform="translate(1076.189247 334.998438) scale(0.1 -0.1)">
       <use xlink:href="#DejaVuSans-30"/>
       <use xlink:href="#DejaVuSans-33" transform="translate(63.623047 0)"/>
       <use xlink:href="#DejaVuSans-27" transform="translate(127.246094 0)"/>
       <use xlink:href="#DejaVuSans-34" transform="translate(154.736328 0)"/>
       <use xlink:href="#DejaVuSans-30" transform="translate(218.359375 0)"/>
       <use xlink:href="#DejaVuSans-22" transform="translate(281.982422 0)"/>
      </g>
     </g>
    </g>
    <g id="xtick_24">
     <g id="line2d_24">
      <g>
       <use xlink:href="#mba471f088f" x="1132.812735" y="320.4" style="stroke: #000000; stroke-width: 0.8"/>
      </g>
     </g>
     <g id="text_24">
      <!-- 03'50" -->
      <g transform="translate(1116.413517 334.998438) scale(0.1 -0.1)">
       <use xlink:href="#DejaVuSans-30"/>
       <use xlink:href="#DejaVuSans-33" transform="translate(63.623047 0)"/>
       <use xlink:href="#DejaVuSans-27" transform="translate(127.246094 0)"/>
       <use xlink:href="#DejaVuSans-35" transform="translate(154.736328 0)"/>
       <use xlink:href="#DejaVuSans-30" transform="translate(218.359375 0)"/>
       <use xlink:href="#DejaVuSans-22" transform="translate(281.982422 0)"/>
      </g>
     </g>
    </g>
    <g id="text_25">
     <!-- Timeline -->
     <g transform="translate(642.942969 348.676562) scale(0.1 -0.1)">
      <defs>
       <path id="DejaVuSans-54" d="M -19 4666 
L 3928 4666 
L 3928 4134 
L 2272 4134 
L 2272 0 
L 1638 0 
L 1638 4134 
L -19 4134 
L -19 4666 
z
" transform="scale(0.015625)"/>
       <path id="DejaVuSans-69" d="M 603 3500 
L 1178 3500 
L 1178 0 
L 603 0 
L 603 3500 
z
M 603 4863 
L 1178 4863 
L 1178 4134 
L 603 4134 
L 603 4863 
z
" transform="scale(0.015625)"/>
       <path id="DejaVuSans-6d" d="M 3328 2828 
Q 3544 3216 3844 3400 
Q 4144 3584 4550 3584 
Q 5097 3584 5394 3201 
Q 5691 2819 5691 2113 
L 5691 0 
L 5113 0 
L 5113 2094 
Q 5113 2597 4934 2840 
Q 4756 3084 4391 3084 
Q 3944 3084 3684 2787 
Q 3425 2491 3425 1978 
L 3425 0 
L 2847 0 
L 2847 2094 
Q 2847 2600 2669 2842 
Q 2491 3084 2119 3084 
Q 1678 3084 1418 2786 
Q 1159 2488 1159 1978 
L 1159 0 
L 581 0 
L 581 3500 
L 1159 3500 
L 1159 2956 
Q 1356 3278 1631 3431 
Q 1906 3584 2284 3584 
Q 2666 3584 2933 3390 
Q 3200 3197 3328 2828 
z
" transform="scale(0.015625)"/>
       <path id="DejaVuSans-65" d="M 3597 1894 
L 3597 1613 
L 953 1613 
Q 991 1019 1311 708 
Q 1631 397 2203 397 
Q 2534 397 2845 478 
Q 3156 559 3463 722 
L 3463 178 
Q 3153 47 2828 -22 
Q 2503 -91 2169 -91 
Q 1331 -91 842 396 
Q 353 884 353 1716 
Q 353 2575 817 3079 
Q 1281 3584 2069 3584 
Q 2775 3584 3186 3129 
Q 3597 2675 3597 1894 
z
M 3022 2063 
Q 3016 2534 2758 2815 
Q 2500 3097 2075 3097 
Q 1594 3097 1305 2825 
Q 1016 2553 972 2059 
L 3022 2063 
z
" transform="scale(0.015625)"/>
       <path id="DejaVuSans-6c" d="M 603 4863 
L 1178 4863 
L 1178 0 
L 603 0 
L 603 4863 
z
" transform="scale(0.015625)"/>
       <path id="DejaVuSans-6e" d="M 3513 2113 
L 3513 0 
L 2938 0 
L 2938 2094 
Q 2938 2591 2744 2837 
Q 2550 3084 2163 3084 
Q 1697 3084 1428 2787 
Q 1159 2491 1159 1978 
L 1159 0 
L 581 0 
L 581 3500 
L 1159 3500 
L 1159 2956 
Q 1366 3272 1645 3428 
Q 1925 3584 2291 3584 
Q 2894 3584 3203 3211 
Q 3513 2838 3513 2113 
z
" transform="scale(0.015625)"/>
      </defs>
      <use xlink:href="#DejaVuSans-54"/>
      <use xlink:href="#DejaVuSans-69" transform="translate(57.958984 0)"/>
      <use xlink:href="#DejaVuSans-6d" transform="translate(85.742188 0)"/>
      <use xlink:href="#DejaVuSans-65" transform="translate(183.154297 0)"/>
      <use xlink:href="#DejaVuSans-6c" transform="translate(244.677734 0)"/>
      <use xlink:href="#DejaVuSans-69" transform="translate(272.460938 0)"/>
      <use xlink:href="#DejaVuSans-6e" transform="translate(300.244141 0)"/>
      <use xlink:href="#DejaVuSans-65" transform="translate(363.623047 0)"/>
     </g>
    </g>
   </g>
   <g id="matplotlib.axis_2">
    <g id="ytick_1">
     <g id="line2d_25">
      <defs>
       <path id="m4235fdeaf1" d="M 0 0 
L -3.5 0 
" style="stroke: #000000; stroke-width: 0.8"/>
      </defs>
      <g>
       <use xlink:href="#m4235fdeaf1" x="162" y="295.2" style="stroke: #000000; stroke-width: 0.8"/>
      </g>
     </g>
     <g id="text_26">
      <!-- 660 -->
      <g transform="translate(135.9125 298.999219) scale(0.1 -0.1)">
       <defs>
        <path id="DejaVuSans-36" d="M 2113 2584 
Q 1688 2584 1439 2293 
Q 1191 2003 1191 1497 
Q 1191 994 1439 701 
Q 1688 409 2113 409 
Q 2538 409 2786 701 
Q 3034 994 3034 1497 
Q 3034 2003 2786 2293 
Q 2538 2584 2113 2584 
z
M 3366 4563 
L 3366 3988 
Q 3128 4100 2886 4159 
Q 2644 4219 2406 4219 
Q 1781 4219 1451 3797 
Q 1122 3375 1075 2522 
Q 1259 2794 1537 2939 
Q 1816 3084 2150 3084 
Q 2853 3084 3261 2657 
Q 3669 2231 3669 1497 
Q 3669 778 3244 343 
Q 2819 -91 2113 -91 
Q 1303 -91 875 529 
Q 447 1150 447 2328 
Q 447 3434 972 4092 
Q 1497 4750 2381 4750 
Q 2619 4750 2861 4703 
Q 3103 4656 3366 4563 
z
" transform="scale(0.015625)"/>
       </defs>
       <use xlink:href="#DejaVuSans-36"/>
       <use xlink:href="#DejaVuSans-36" transform="translate(63.623047 0)"/>
       <use xlink:href="#DejaVuSans-30" transform="translate(127.246094 0)"/>
      </g>
     </g>
    </g>
    <g id="ytick_2">
     <g id="line2d_26">
      <g>
       <use xlink:href="#m4235fdeaf1" x="162" y="244.8" style="stroke: #000000; stroke-width: 0.8"/>
      </g>
     </g>
     <g id="text_27">
      <!-- 680 -->
      <g transform="translate(135.9125 248.599219) scale(0.1 -0.1)">
       <defs>
        <path id="DejaVuSans-38" d="M 2034 2216 
Q 1584 2216 1326 1975 
Q 1069 1734 1069 1313 
Q 1069 891 1326 650 
Q 1584 409 2034 409 
Q 2484 409 2743 651 
Q 3003 894 3003 1313 
Q 3003 1734 2745 1975 
Q 2488 2216 2034 2216 
z
M 1403 2484 
Q 997 2584 770 2862 
Q 544 3141 544 3541 
Q 544 4100 942 4425 
Q 1341 4750 2034 4750 
Q 2731 4750 3128 4425 
Q 3525 4100 3525 3541 
Q 3525 3141 3298 2862 
Q 3072 2584 2669 2484 
Q 3125 2378 3379 2068 
Q 3634 1759 3634 1313 
Q 3634 634 3220 271 
Q 2806 -91 2034 -91 
Q 1263 -91 848 271 
Q 434 634 434 1313 
Q 434 1759 690 2068 
Q 947 2378 1403 2484 
z
M 1172 3481 
Q 1172 3119 1398 2916 
Q 1625 2713 2034 2713 
Q 2441 2713 2670 2916 
Q 2900 3119 2900 3481 
Q 2900 3844 2670 4047 
Q 2441 4250 2034 4250 
Q 1625 4250 1398 4047 
Q 1172 3844 1172 3481 
z
" transform="scale(0.015625)"/>
       </defs>
       <use xlink:href="#DejaVuSans-36"/>
       <use xlink:href="#DejaVuSans-38" transform="translate(63.623047 0)"/>
       <use xlink:href="#DejaVuSans-30" transform="translate(127.246094 0)"/>
      </g>
     </g>
    </g>
    <g id="ytick_3">
     <g id="line2d_27">
      <g>
       <use xlink:href="#m4235fdeaf1" x="162" y="194.4" style="stroke: #000000; stroke-width: 0.8"/>
      </g>
     </g>
     <g id="text_28">
      <!-- 700 -->
      <g transform="translate(135.9125 198.199219) scale(0.1 -0.1)">
       <defs>
        <path id="DejaVuSans-37" d="M 525 4666 
L 3525 4666 
L 3525 4397 
L 1831 0 
L 1172 0 
L 2766 4134 
L 525 4134 
L 525 4666 
z
" transform="scale(0.015625)"/>
       </defs>
       <use xlink:href="#DejaVuSans-37"/>
       <use xlink:href="#DejaVuSans-30" transform="translate(63.623047 0)"/>
       <use xlink:href="#DejaVuSans-30" transform="translate(127.246094 0)"/>
      </g>
     </g>
    </g>
    <g id="ytick_4">
     <g id="line2d_28">
      <g>
       <use xlink:href="#m4235fdeaf1" x="162" y="144" style="stroke: #000000; stroke-width: 0.8"/>
      </g>
     </g>
     <g id="text_29">
      <!-- 720 -->
      <g transform="translate(135.9125 147.799219) scale(0.1 -0.1)">
       <use xlink:href="#DejaVuSans-37"/>
       <use xlink:href="#DejaVuSans-32" transform="translate(63.623047 0)"/>
       <use xlink:href="#DejaVuSans-30" transform="translate(127.246094 0)"/>
      </g>
     </g>
    </g>
    <g id="ytick_5">
     <g id="line2d_29">
      <g>
       <use xlink:href="#m4235fdeaf1" x="162" y="93.6" style="stroke: #000000; stroke-width: 0.8"/>
      </g>
     </g>
     <g id="text_30">
      <!-- 740 -->
      <g transform="translate(135.9125 97.399219) scale(0.1 -0.1)">
       <use xlink:href="#DejaVuSans-37"/>
       <use xlink:href="#DejaVuSans-34" transform="translate(63.623047 0)"/>
       <use xlink:href="#DejaVuSans-30" transform="translate(127.246094 0)"/>
      </g>
     </g>
    </g>
    <g id="ytick_6">
     <g id="line2d_30">
      <g>
       <use xlink:href="#m4235fdeaf1" x="162" y="43.2" style="stroke: #000000; stroke-width: 0.8"/>
      </g>
     </g>
     <g id="text_31">
      <!-- 760 -->
      <g transform="translate(135.9125 46.999219) scale(0.1 -0.1)">
       <use xlink:href="#DejaVuSans-37"/>
       <use xlink:href="#DejaVuSans-36" transform="translate(63.623047 0)"/>
       <use xlink:href="#DejaVuSans-30" transform="translate(127.246094 0)"/>
      </g>
     </g>
    </g>
    <g id="text_32">
     <!-- KBytes generated -->
     <g transform="translate(129.832812 226.525781) rotate(-90) scale(0.1 -0.1)">
      <defs>
       <path id="DejaVuSans-4b" d="M 628 4666 
L 1259 4666 
L 1259 2694 
L 3353 4666 
L 4166 4666 
L 1850 2491 
L 4331 0 
L 3500 0 
L 1259 2247 
L 1259 0 
L 628 0 
L 628 4666 
z
" transform="scale(0.015625)"/>
       <path id="DejaVuSans-42" d="M 1259 2228 
L 1259 519 
L 2272 519 
Q 2781 519 3026 730 
Q 3272 941 3272 1375 
Q 3272 1813 3026 2020 
Q 2781 2228 2272 2228 
L 1259 2228 
z
M 1259 4147 
L 1259 2741 
L 2194 2741 
Q 2656 2741 2882 2914 
Q 3109 3088 3109 3444 
Q 3109 3797 2882 3972 
Q 2656 4147 2194 4147 
L 1259 4147 
z
M 628 4666 
L 2241 4666 
Q 2963 4666 3353 4366 
Q 3744 4066 3744 3513 
Q 3744 3084 3544 2831 
Q 3344 2578 2956 2516 
Q 3422 2416 3680 2098 
Q 3938 1781 3938 1306 
Q 3938 681 3513 340 
Q 3088 0 2303 0 
L 628 0 
L 628 4666 
z
" transform="scale(0.015625)"/>
       <path id="DejaVuSans-79" d="M 2059 -325 
Q 1816 -950 1584 -1140 
Q 1353 -1331 966 -1331 
L 506 -1331 
L 506 -850 
L 844 -850 
Q 1081 -850 1212 -737 
Q 1344 -625 1503 -206 
L 1606 56 
L 191 3500 
L 800 3500 
L 1894 763 
L 2988 3500 
L 3597 3500 
L 2059 -325 
z
" transform="scale(0.015625)"/>
       <path id="DejaVuSans-74" d="M 1172 4494 
L 1172 3500 
L 2356 3500 
L 2356 3053 
L 1172 3053 
L 1172 1153 
Q 1172 725 1289 603 
Q 1406 481 1766 481 
L 2356 481 
L 2356 0 
L 1766 0 
Q 1100 0 847 248 
Q 594 497 594 1153 
L 594 3053 
L 172 3053 
L 172 3500 
L 594 3500 
L 594 4494 
L 1172 4494 
z
" transform="scale(0.015625)"/>
       <path id="DejaVuSans-73" d="M 2834 3397 
L 2834 2853 
Q 2591 2978 2328 3040 
Q 2066 3103 1784 3103 
Q 1356 3103 1142 2972 
Q 928 2841 928 2578 
Q 928 2378 1081 2264 
Q 1234 2150 1697 2047 
L 1894 2003 
Q 2506 1872 2764 1633 
Q 3022 1394 3022 966 
Q 3022 478 2636 193 
Q 2250 -91 1575 -91 
Q 1294 -91 989 -36 
Q 684 19 347 128 
L 347 722 
Q 666 556 975 473 
Q 1284 391 1588 391 
Q 1994 391 2212 530 
Q 2431 669 2431 922 
Q 2431 1156 2273 1281 
Q 2116 1406 1581 1522 
L 1381 1569 
Q 847 1681 609 1914 
Q 372 2147 372 2553 
Q 372 3047 722 3315 
Q 1072 3584 1716 3584 
Q 2034 3584 2315 3537 
Q 2597 3491 2834 3397 
z
" transform="scale(0.015625)"/>
       <path id="DejaVuSans-20" transform="scale(0.015625)"/>
       <path id="DejaVuSans-67" d="M 2906 1791 
Q 2906 2416 2648 2759 
Q 2391 3103 1925 3103 
Q 1463 3103 1205 2759 
Q 947 2416 947 1791 
Q 947 1169 1205 825 
Q 1463 481 1925 481 
Q 2391 481 2648 825 
Q 2906 1169 2906 1791 
z
M 3481 434 
Q 3481 -459 3084 -895 
Q 2688 -1331 1869 -1331 
Q 1566 -1331 1297 -1286 
Q 1028 -1241 775 -1147 
L 775 -588 
Q 1028 -725 1275 -790 
Q 1522 -856 1778 -856 
Q 2344 -856 2625 -561 
Q 2906 -266 2906 331 
L 2906 616 
Q 2728 306 2450 153 
Q 2172 0 1784 0 
Q 1141 0 747 490 
Q 353 981 353 1791 
Q 353 2603 747 3093 
Q 1141 3584 1784 3584 
Q 2172 3584 2450 3431 
Q 2728 3278 2906 2969 
L 2906 3500 
L 3481 3500 
L 3481 434 
z
" transform="scale(0.015625)"/>
       <path id="DejaVuSans-72" d="M 2631 2963 
Q 2534 3019 2420 3045 
Q 2306 3072 2169 3072 
Q 1681 3072 1420 2755 
Q 1159 2438 1159 1844 
L 1159 0 
L 581 0 
L 581 3500 
L 1159 3500 
L 1159 2956 
Q 1341 3275 1631 3429 
Q 1922 3584 2338 3584 
Q 2397 3584 2469 3576 
Q 2541 3569 2628 3553 
L 2631 2963 
z
" transform="scale(0.015625)"/>
       <path id="DejaVuSans-61" d="M 2194 1759 
Q 1497 1759 1228 1600 
Q 959 1441 959 1056 
Q 959 750 1161 570 
Q 1363 391 1709 391 
Q 2188 391 2477 730 
Q 2766 1069 2766 1631 
L 2766 1759 
L 2194 1759 
z
M 3341 1997 
L 3341 0 
L 2766 0 
L 2766 531 
Q 2569 213 2275 61 
Q 1981 -91 1556 -91 
Q 1019 -91 701 211 
Q 384 513 384 1019 
Q 384 1609 779 1909 
Q 1175 2209 1959 2209 
L 2766 2209 
L 2766 2266 
Q 2766 2663 2505 2880 
Q 2244 3097 1772 3097 
Q 1472 3097 1187 3025 
Q 903 2953 641 2809 
L 641 3341 
Q 956 3463 1253 3523 
Q 1550 3584 1831 3584 
Q 2591 3584 2966 3190 
Q 3341 2797 3341 1997 
z
" transform="scale(0.015625)"/>
       <path id="DejaVuSans-64" d="M 2906 2969 
L 2906 4863 
L 3481 4863 
L 3481 0 
L 2906 0 
L 2906 525 
Q 2725 213 2448 61 
Q 2172 -91 1784 -91 
Q 1150 -91 751 415 
Q 353 922 353 1747 
Q 353 2572 751 3078 
Q 1150 3584 1784 3584 
Q 2172 3584 2448 3432 
Q 2725 3281 2906 2969 
z
M 947 1747 
Q 947 1113 1208 752 
Q 1469 391 1925 391 
Q 2381 391 2643 752 
Q 2906 1113 2906 1747 
Q 2906 2381 2643 2742 
Q 2381 3103 1925 3103 
Q 1469 3103 1208 2742 
Q 947 2381 947 1747 
z
" transform="scale(0.015625)"/>
      </defs>
      <use xlink:href="#DejaVuSans-4b"/>
      <use xlink:href="#DejaVuSans-42" transform="translate(65.576172 0)"/>
      <use xlink:href="#DejaVuSans-79" transform="translate(134.179688 0)"/>
      <use xlink:href="#DejaVuSans-74" transform="translate(193.359375 0)"/>
      <use xlink:href="#DejaVuSans-65" transform="translate(232.568359 0)"/>
      <use xlink:href="#DejaVuSans-73" transform="translate(294.091797 0)"/>
      <use xlink:href="#DejaVuSans-20" transform="translate(346.191406 0)"/>
      <use xlink:href="#DejaVuSans-67" transform="translate(377.978516 0)"/>
      <use xlink:href="#DejaVuSans-65" transform="translate(441.455078 0)"/>
      <use xlink:href="#DejaVuSans-6e" transform="translate(502.978516 0)"/>
      <use xlink:href="#DejaVuSans-65" transform="translate(566.357422 0)"/>
      <use xlink:href="#DejaVuSans-72" transform="translate(627.880859 0)"/>
      <use xlink:href="#DejaVuSans-61" transform="translate(668.994141 0)"/>
      <use xlink:href="#DejaVuSans-74" transform="translate(730.273438 0)"/>
      <use xlink:href="#DejaVuSans-65" transform="translate(769.482422 0)"/>
      <use xlink:href="#DejaVuSans-64" transform="translate(831.005859 0)"/>
     </g>
    </g>
   </g>
   <g id="patch_119">
    <path d="M 162 320.4 
L 162 43.2 
" style="fill: none; stroke: #000000; stroke-width: 0.8; stroke-linejoin: miter; stroke-linecap: square"/>
   </g>
   <g id="patch_120">
    <path d="M 1166.4 320.4 
L 1166.4 43.2 
" style="fill: none; stroke: #000000; stroke-width: 0.8; stroke-linejoin: miter; stroke-linecap: square"/>
   </g>
   <g id="patch_121">
    <path d="M 162 320.4 
L 1166.4 320.4 
" style="fill: none; stroke: #000000; stroke-width: 0.8; stroke-linejoin: miter; stroke-linecap: square"/>
   </g>
   <g id="patch_122">
    <path d="M 162 43.2 
L 1166.4 43.2 
" style="fill: none; stroke: #000000; stroke-width: 0.8; stroke-linejoin: miter; stroke-linecap: square"/>
   </g>
  </g>
  <g id="text_33">
   <!-- Cow hip images stream excerpt shape -->
   <g transform="translate(532.824375 16.318125) scale(0.12 -0.12)">
    <defs>
     <path id="DejaVuSans-43" d="M 4122 4306 
L 4122 3641 
Q 3803 3938 3442 4084 
Q 3081 4231 2675 4231 
Q 1875 4231 1450 3742 
Q 1025 3253 1025 2328 
Q 1025 1406 1450 917 
Q 1875 428 2675 428 
Q 3081 428 3442 575 
Q 3803 722 4122 1019 
L 4122 359 
Q 3791 134 3420 21 
Q 3050 -91 2638 -91 
Q 1578 -91 968 557 
Q 359 1206 359 2328 
Q 359 3453 968 4101 
Q 1578 4750 2638 4750 
Q 3056 4750 3426 4639 
Q 3797 4528 4122 4306 
z
" transform="scale(0.015625)"/>
     <path id="DejaVuSans-6f" d="M 1959 3097 
Q 1497 3097 1228 2736 
Q 959 2375 959 1747 
Q 959 1119 1226 758 
Q 1494 397 1959 397 
Q 2419 397 2687 759 
Q 2956 1122 2956 1747 
Q 2956 2369 2687 2733 
Q 2419 3097 1959 3097 
z
M 1959 3584 
Q 2709 3584 3137 3096 
Q 3566 2609 3566 1747 
Q 3566 888 3137 398 
Q 2709 -91 1959 -91 
Q 1206 -91 779 398 
Q 353 888 353 1747 
Q 353 2609 779 3096 
Q 1206 3584 1959 3584 
z
" transform="scale(0.015625)"/>
     <path id="DejaVuSans-77" d="M 269 3500 
L 844 3500 
L 1563 769 
L 2278 3500 
L 2956 3500 
L 3675 769 
L 4391 3500 
L 4966 3500 
L 4050 0 
L 3372 0 
L 2619 2869 
L 1863 0 
L 1184 0 
L 269 3500 
z
" transform="scale(0.015625)"/>
     <path id="DejaVuSans-68" d="M 3513 2113 
L 3513 0 
L 2938 0 
L 2938 2094 
Q 2938 2591 2744 2837 
Q 2550 3084 2163 3084 
Q 1697 3084 1428 2787 
Q 1159 2491 1159 1978 
L 1159 0 
L 581 0 
L 581 4863 
L 1159 4863 
L 1159 2956 
Q 1366 3272 1645 3428 
Q 1925 3584 2291 3584 
Q 2894 3584 3203 3211 
Q 3513 2838 3513 2113 
z
" transform="scale(0.015625)"/>
     <path id="DejaVuSans-70" d="M 1159 525 
L 1159 -1331 
L 581 -1331 
L 581 3500 
L 1159 3500 
L 1159 2969 
Q 1341 3281 1617 3432 
Q 1894 3584 2278 3584 
Q 2916 3584 3314 3078 
Q 3713 2572 3713 1747 
Q 3713 922 3314 415 
Q 2916 -91 2278 -91 
Q 1894 -91 1617 61 
Q 1341 213 1159 525 
z
M 3116 1747 
Q 3116 2381 2855 2742 
Q 2594 3103 2138 3103 
Q 1681 3103 1420 2742 
Q 1159 2381 1159 1747 
Q 1159 1113 1420 752 
Q 1681 391 2138 391 
Q 2594 391 2855 752 
Q 3116 1113 3116 1747 
z
" transform="scale(0.015625)"/>
     <path id="DejaVuSans-78" d="M 3513 3500 
L 2247 1797 
L 3578 0 
L 2900 0 
L 1881 1375 
L 863 0 
L 184 0 
L 1544 1831 
L 300 3500 
L 978 3500 
L 1906 2253 
L 2834 3500 
L 3513 3500 
z
" transform="scale(0.015625)"/>
     <path id="DejaVuSans-63" d="M 3122 3366 
L 3122 2828 
Q 2878 2963 2633 3030 
Q 2388 3097 2138 3097 
Q 1578 3097 1268 2742 
Q 959 2388 959 1747 
Q 959 1106 1268 751 
Q 1578 397 2138 397 
Q 2388 397 2633 464 
Q 2878 531 3122 666 
L 3122 134 
Q 2881 22 2623 -34 
Q 2366 -91 2075 -91 
Q 1284 -91 818 406 
Q 353 903 353 1747 
Q 353 2603 823 3093 
Q 1294 3584 2113 3584 
Q 2378 3584 2631 3529 
Q 2884 3475 3122 3366 
z
" transform="scale(0.015625)"/>
    </defs>
    <use xlink:href="#DejaVuSans-43"/>
    <use xlink:href="#DejaVuSans-6f" transform="translate(69.824219 0)"/>
    <use xlink:href="#DejaVuSans-77" transform="translate(131.005859 0)"/>
    <use xlink:href="#DejaVuSans-20" transform="translate(212.792969 0)"/>
    <use xlink:href="#DejaVuSans-68" transform="translate(244.580078 0)"/>
    <use xlink:href="#DejaVuSans-69" transform="translate(307.958984 0)"/>
    <use xlink:href="#DejaVuSans-70" transform="translate(335.742188 0)"/>
    <use xlink:href="#DejaVuSans-20" transform="translate(399.21875 0)"/>
    <use xlink:href="#DejaVuSans-69" transform="translate(431.005859 0)"/>
    <use xlink:href="#DejaVuSans-6d" transform="translate(458.789062 0)"/>
    <use xlink:href="#DejaVuSans-61" transform="translate(556.201172 0)"/>
    <use xlink:href="#DejaVuSans-67" transform="translate(617.480469 0)"/>
    <use xlink:href="#DejaVuSans-65" transform="translate(680.957031 0)"/>
    <use xlink:href="#DejaVuSans-73" transform="translate(742.480469 0)"/>
    <use xlink:href="#DejaVuSans-20" transform="translate(794.580078 0)"/>
    <use xlink:href="#DejaVuSans-73" transform="translate(826.367188 0)"/>
    <use xlink:href="#DejaVuSans-74" transform="translate(878.466797 0)"/>
    <use xlink:href="#DejaVuSans-72" transform="translate(917.675781 0)"/>
    <use xlink:href="#DejaVuSans-65" transform="translate(956.539062 0)"/>
    <use xlink:href="#DejaVuSans-61" transform="translate(1018.0625 0)"/>
    <use xlink:href="#DejaVuSans-6d" transform="translate(1079.341797 0)"/>
    <use xlink:href="#DejaVuSans-20" transform="translate(1176.753906 0)"/>
    <use xlink:href="#DejaVuSans-65" transform="translate(1208.541016 0)"/>
    <use xlink:href="#DejaVuSans-78" transform="translate(1268.314453 0)"/>
    <use xlink:href="#DejaVuSans-63" transform="translate(1325.744141 0)"/>
    <use xlink:href="#DejaVuSans-65" transform="translate(1380.724609 0)"/>
    <use xlink:href="#DejaVuSans-72" transform="translate(1442.248047 0)"/>
    <use xlink:href="#DejaVuSans-70" transform="translate(1483.361328 0)"/>
    <use xlink:href="#DejaVuSans-74" transform="translate(1546.837891 0)"/>
    <use xlink:href="#DejaVuSans-20" transform="translate(1586.046875 0)"/>
    <use xlink:href="#DejaVuSans-73" transform="translate(1617.833984 0)"/>
    <use xlink:href="#DejaVuSans-68" transform="translate(1669.933594 0)"/>
    <use xlink:href="#DejaVuSans-61" transform="translate(1733.3125 0)"/>
    <use xlink:href="#DejaVuSans-70" transform="translate(1794.591797 0)"/>
    <use xlink:href="#DejaVuSans-65" transform="translate(1858.068359 0)"/>
   </g>
  </g>
 </g>
 <defs>
  <clipPath id="p0bb5499b28">
   <rect x="162" y="43.2" width="1004.4" height="277.2"/>
  </clipPath>
 </defs>
</svg>
