<?xml version="1.0" encoding="utf-8" standalone="no"?>
<!DOCTYPE svg PUBLIC "-//W3C//DTD SVG 1.1//EN"
  "http://www.w3.org/Graphics/SVG/1.1/DTD/svg11.dtd">
<svg xmlns:xlink="http://www.w3.org/1999/xlink" width="1296pt" height="360pt" viewBox="0 0 1296 360" xmlns="http://www.w3.org/2000/svg" version="1.1">
 <metadata>
  <rdf:RDF xmlns:dc="http://purl.org/dc/elements/1.1/" xmlns:cc="http://creativecommons.org/ns#" xmlns:rdf="http://www.w3.org/1999/02/22-rdf-syntax-ns#">
   <cc:Work>
    <dc:type rdf:resource="http://purl.org/dc/dcmitype/StillImage"/>
    <dc:date>2025-02-04T18:47:20.008942</dc:date>
    <dc:format>image/svg+xml</dc:format>
    <dc:creator>
     <cc:Agent>
      <dc:title>Matplotlib v3.10.0, https://matplotlib.org/</dc:title>
     </cc:Agent>
    </dc:creator>
   </cc:Work>
  </rdf:RDF>
 </metadata>
 <defs>
  <style type="text/css">*{stroke-linejoin: round; stroke-linecap: butt}</style>
 </defs>
 <g id="figure_1">
  <g id="patch_1">
   <path d="M 0 360 
L 1296 360 
L 1296 0 
L 0 0 
z
" style="fill: #ffffff"/>
  </g>
  <g id="axes_1">
   <g id="patch_2">
    <path d="M 162 320.4 
L 1166.4 320.4 
L 1166.4 43.2 
L 162 43.2 
z
" style="fill: #ffffff"/>
   </g>
   <g id="patch_3">
    <path d="M 207.654545 566.8 
L 215.200751 566.8 
L 215.200751 143.39625 
L 207.654545 143.39625 
z
" clip-path="url(#p27ac108418)" style="fill: #ff0000"/>
   </g>
   <g id="patch_4">
    <path d="M 211.427648 566.8 
L 218.973854 566.8 
L 218.973854 153.893516 
L 211.427648 153.893516 
z
" clip-path="url(#p27ac108418)" style="fill: #ff0000"/>
   </g>
   <g id="patch_5">
    <path d="M 215.200751 566.8 
L 222.746957 566.8 
L 222.746957 165.72625 
L 215.200751 165.72625 
z
" clip-path="url(#p27ac108418)" style="fill: #ff0000"/>
   </g>
   <g id="patch_6">
    <path d="M 218.973854 566.8 
L 226.52006 566.8 
L 226.52006 175.261016 
L 218.973854 175.261016 
z
" clip-path="url(#p27ac108418)" style="fill: #ff0000"/>
   </g>
   <g id="patch_7">
    <path d="M 222.746957 566.8 
L 230.293163 566.8 
L 230.293163 179.508047 
L 222.746957 179.508047 
z
" clip-path="url(#p27ac108418)" style="fill: #ff0000"/>
   </g>
   <g id="patch_8">
    <path d="M 226.52006 566.8 
L 234.066266 566.8 
L 234.066266 198.872344 
L 226.52006 198.872344 
z
" clip-path="url(#p27ac108418)" style="fill: #ff0000"/>
   </g>
   <g id="patch_9">
    <path d="M 230.293163 566.8 
L 237.839369 566.8 
L 237.839369 206.193359 
L 230.293163 206.193359 
z
" clip-path="url(#p27ac108418)" style="fill: #ff0000"/>
   </g>
   <g id="patch_10">
    <path d="M 234.066266 566.8 
L 241.612472 566.8 
L 241.612472 208.900391 
L 234.066266 208.900391 
z
" clip-path="url(#p27ac108418)" style="fill: #ff0000"/>
   </g>
   <g id="patch_11">
    <path d="M 237.839369 566.8 
L 245.385575 566.8 
L 245.385575 211.210391 
L 237.839369 211.210391 
z
" clip-path="url(#p27ac108418)" style="fill: #ff0000"/>
   </g>
   <g id="patch_12">
    <path d="M 241.612472 566.8 
L 249.158678 566.8 
L 249.158678 214.946094 
L 241.612472 214.946094 
z
" clip-path="url(#p27ac108418)" style="fill: #ff0000"/>
   </g>
   <g id="patch_13">
    <path d="M 245.385575 566.8 
L 252.931781 566.8 
L 252.931781 218.362969 
L 245.385575 218.362969 
z
" clip-path="url(#p27ac108418)" style="fill: #ff0000"/>
   </g>
   <g id="patch_14">
    <path d="M 249.158678 566.8 
L 256.704884 566.8 
L 256.704884 219.385625 
L 249.158678 219.385625 
z
" clip-path="url(#p27ac108418)" style="fill: #ff0000"/>
   </g>
   <g id="patch_15">
    <path d="M 252.931781 566.8 
L 260.477986 566.8 
L 260.477986 218.146406 
L 252.931781 218.146406 
z
" clip-path="url(#p27ac108418)" style="fill: #ff0000"/>
   </g>
   <g id="patch_16">
    <path d="M 256.704884 566.8 
L 264.251089 566.8 
L 264.251089 217.075625 
L 256.704884 217.075625 
z
" clip-path="url(#p27ac108418)" style="fill: #ff0000"/>
   </g>
   <g id="patch_17">
    <path d="M 260.477986 566.8 
L 268.024192 566.8 
L 268.024192 215.716094 
L 260.477986 215.716094 
z
" clip-path="url(#p27ac108418)" style="fill: #ff0000"/>
   </g>
   <g id="patch_18">
    <path d="M 264.251089 566.8 
L 271.797295 566.8 
L 271.797295 211.300625 
L 264.251089 211.300625 
z
" clip-path="url(#p27ac108418)" style="fill: #ff0000"/>
   </g>
   <g id="patch_19">
    <path d="M 268.024192 566.8 
L 275.570398 566.8 
L 275.570398 206.193359 
L 268.024192 206.193359 
z
" clip-path="url(#p27ac108418)" style="fill: #ff0000"/>
   </g>
   <g id="patch_20">
    <path d="M 271.797295 566.8 
L 279.343501 566.8 
L 279.343501 207.667188 
L 271.797295 207.667188 
z
" clip-path="url(#p27ac108418)" style="fill: #ff0000"/>
   </g>
   <g id="patch_21">
    <path d="M 275.570398 566.8 
L 283.116604 566.8 
L 283.116604 208.605625 
L 275.570398 208.605625 
z
" clip-path="url(#p27ac108418)" style="fill: #ff0000"/>
   </g>
   <g id="patch_22">
    <path d="M 279.343501 566.8 
L 286.889707 566.8 
L 286.889707 209.790703 
L 279.343501 209.790703 
z
" clip-path="url(#p27ac108418)" style="fill: #ff0000"/>
   </g>
   <g id="patch_23">
    <path d="M 283.116604 566.8 
L 290.66281 566.8 
L 290.66281 205.525625 
L 283.116604 205.525625 
z
" clip-path="url(#p27ac108418)" style="fill: #ff0000"/>
   </g>
   <g id="patch_24">
    <path d="M 286.889707 566.8 
L 294.435913 566.8 
L 294.435913 204.629297 
L 286.889707 204.629297 
z
" clip-path="url(#p27ac108418)" style="fill: #ff0000"/>
   </g>
   <g id="patch_25">
    <path d="M 290.66281 566.8 
L 298.209016 566.8 
L 298.209016 207.619062 
L 290.66281 207.619062 
z
" clip-path="url(#p27ac108418)" style="fill: #ff0000"/>
   </g>
   <g id="patch_26">
    <path d="M 294.435913 566.8 
L 301.982119 566.8 
L 301.982119 209.796719 
L 294.435913 209.796719 
z
" clip-path="url(#p27ac108418)" style="fill: #ff0000"/>
   </g>
   <g id="patch_27">
    <path d="M 298.209016 566.8 
L 305.755222 566.8 
L 305.755222 212.142812 
L 298.209016 212.142812 
z
" clip-path="url(#p27ac108418)" style="fill: #ff0000"/>
   </g>
   <g id="patch_28">
    <path d="M 301.982119 566.8 
L 309.528325 566.8 
L 309.528325 214.903984 
L 301.982119 214.903984 
z
" clip-path="url(#p27ac108418)" style="fill: #ff0000"/>
   </g>
   <g id="patch_29">
    <path d="M 305.755222 566.8 
L 313.301427 566.8 
L 313.301427 215.734141 
L 305.755222 215.734141 
z
" clip-path="url(#p27ac108418)" style="fill: #ff0000"/>
   </g>
   <g id="patch_30">
    <path d="M 309.528325 566.8 
L 317.07453 566.8 
L 317.07453 216.810938 
L 309.528325 216.810938 
z
" clip-path="url(#p27ac108418)" style="fill: #ff0000"/>
   </g>
   <g id="patch_31">
    <path d="M 313.301427 566.8 
L 320.847633 566.8 
L 320.847633 218.814141 
L 313.301427 218.814141 
z
" clip-path="url(#p27ac108418)" style="fill: #ff0000"/>
   </g>
   <g id="patch_32">
    <path d="M 317.07453 566.8 
L 324.620736 566.8 
L 324.620736 221.924219 
L 317.07453 221.924219 
z
" clip-path="url(#p27ac108418)" style="fill: #ff0000"/>
   </g>
   <g id="patch_33">
    <path d="M 320.847633 566.8 
L 328.393839 566.8 
L 328.393839 220.432344 
L 320.847633 220.432344 
z
" clip-path="url(#p27ac108418)" style="fill: #ff0000"/>
   </g>
   <g id="patch_34">
    <path d="M 324.620736 566.8 
L 332.166942 566.8 
L 332.166942 215.282969 
L 324.620736 215.282969 
z
" clip-path="url(#p27ac108418)" style="fill: #ff0000"/>
   </g>
   <g id="patch_35">
    <path d="M 328.393839 566.8 
L 335.940045 566.8 
L 335.940045 215.120547 
L 328.393839 215.120547 
z
" clip-path="url(#p27ac108418)" style="fill: #ff0000"/>
   </g>
   <g id="patch_36">
    <path d="M 332.166942 566.8 
L 339.713148 566.8 
L 339.713148 214.940078 
L 332.166942 214.940078 
z
" clip-path="url(#p27ac108418)" style="fill: #ff0000"/>
   </g>
   <g id="patch_37">
    <path d="M 335.940045 566.8 
L 343.486251 566.8 
L 343.486251 217.472656 
L 335.940045 217.472656 
z
" clip-path="url(#p27ac108418)" style="fill: #ff0000"/>
   </g>
   <g id="patch_38">
    <path d="M 339.713148 566.8 
L 347.259354 566.8 
L 347.259354 216.498125 
L 339.713148 216.498125 
z
" clip-path="url(#p27ac108418)" style="fill: #ff0000"/>
   </g>
   <g id="patch_39">
    <path d="M 343.486251 566.8 
L 351.032457 566.8 
L 351.032457 216.636484 
L 343.486251 216.636484 
z
" clip-path="url(#p27ac108418)" style="fill: #ff0000"/>
   </g>
   <g id="patch_40">
    <path d="M 347.259354 566.8 
L 354.80556 566.8 
L 354.80556 214.446797 
L 347.259354 214.446797 
z
" clip-path="url(#p27ac108418)" style="fill: #ff0000"/>
   </g>
   <g id="patch_41">
    <path d="M 351.032457 566.8 
L 358.578663 566.8 
L 358.578663 212.768438 
L 351.032457 212.768438 
z
" clip-path="url(#p27ac108418)" style="fill: #ff0000"/>
   </g>
   <g id="patch_42">
    <path d="M 354.80556 566.8 
L 362.351766 566.8 
L 362.351766 209.086875 
L 354.80556 209.086875 
z
" clip-path="url(#p27ac108418)" style="fill: #ff0000"/>
   </g>
   <g id="patch_43">
    <path d="M 358.578663 566.8 
L 366.124869 566.8 
L 366.124869 204.743594 
L 358.578663 204.743594 
z
" clip-path="url(#p27ac108418)" style="fill: #ff0000"/>
   </g>
   <g id="patch_44">
    <path d="M 362.351766 566.8 
L 369.897971 566.8 
L 369.897971 204.268359 
L 362.351766 204.268359 
z
" clip-path="url(#p27ac108418)" style="fill: #ff0000"/>
   </g>
   <g id="patch_45">
    <path d="M 366.124869 566.8 
L 373.671074 566.8 
L 373.671074 202.385469 
L 366.124869 202.385469 
z
" clip-path="url(#p27ac108418)" style="fill: #ff0000"/>
   </g>
   <g id="patch_46">
    <path d="M 369.897971 566.8 
L 377.444177 566.8 
L 377.444177 202.006484 
L 369.897971 202.006484 
z
" clip-path="url(#p27ac108418)" style="fill: #ff0000"/>
   </g>
   <g id="patch_47">
    <path d="M 373.671074 566.8 
L 381.21728 566.8 
L 381.21728 198.860313 
L 373.671074 198.860313 
z
" clip-path="url(#p27ac108418)" style="fill: #ff0000"/>
   </g>
   <g id="patch_48">
    <path d="M 377.444177 566.8 
L 384.990383 566.8 
L 384.990383 197.446641 
L 377.444177 197.446641 
z
" clip-path="url(#p27ac108418)" style="fill: #ff0000"/>
   </g>
   <g id="patch_49">
    <path d="M 381.21728 566.8 
L 388.763486 566.8 
L 388.763486 195.341172 
L 381.21728 195.341172 
z
" clip-path="url(#p27ac108418)" style="fill: #ff0000"/>
   </g>
   <g id="patch_50">
    <path d="M 384.990383 566.8 
L 392.536589 566.8 
L 392.536589 194.420781 
L 384.990383 194.420781 
z
" clip-path="url(#p27ac108418)" style="fill: #ff0000"/>
   </g>
   <g id="patch_51">
    <path d="M 388.763486 566.8 
L 396.309692 566.8 
L 396.309692 190.739219 
L 388.763486 190.739219 
z
" clip-path="url(#p27ac108418)" style="fill: #ff0000"/>
   </g>
   <g id="patch_52">
    <path d="M 392.536589 566.8 
L 400.082795 566.8 
L 400.082795 189.578203 
L 392.536589 189.578203 
z
" clip-path="url(#p27ac108418)" style="fill: #ff0000"/>
   </g>
   <g id="patch_53">
    <path d="M 396.309692 566.8 
L 403.855898 566.8 
L 403.855898 189.247344 
L 396.309692 189.247344 
z
" clip-path="url(#p27ac108418)" style="fill: #ff0000"/>
   </g>
   <g id="patch_54">
    <path d="M 400.082795 566.8 
L 407.629001 566.8 
L 407.629001 189.878984 
L 400.082795 189.878984 
z
" clip-path="url(#p27ac108418)" style="fill: #ff0000"/>
   </g>
   <g id="patch_55">
    <path d="M 403.855898 566.8 
L 411.402104 566.8 
L 411.402104 189.072891 
L 403.855898 189.072891 
z
" clip-path="url(#p27ac108418)" style="fill: #ff0000"/>
   </g>
   <g id="patch_56">
    <path d="M 407.629001 566.8 
L 415.175207 566.8 
L 415.175207 191.425 
L 407.629001 191.425 
z
" clip-path="url(#p27ac108418)" style="fill: #ff0000"/>
   </g>
   <g id="patch_57">
    <path d="M 411.402104 566.8 
L 418.94831 566.8 
L 418.94831 191.90625 
L 411.402104 191.90625 
z
" clip-path="url(#p27ac108418)" style="fill: #ff0000"/>
   </g>
   <g id="patch_58">
    <path d="M 415.175207 566.8 
L 422.721412 566.8 
L 422.721412 195.100547 
L 415.175207 195.100547 
z
" clip-path="url(#p27ac108418)" style="fill: #ff0000"/>
   </g>
   <g id="patch_59">
    <path d="M 418.94831 566.8 
L 426.494515 566.8 
L 426.494515 197.879766 
L 418.94831 197.879766 
z
" clip-path="url(#p27ac108418)" style="fill: #ff0000"/>
   </g>
   <g id="patch_60">
    <path d="M 422.721412 566.8 
L 430.267618 566.8 
L 430.267618 198.282813 
L 422.721412 198.282813 
z
" clip-path="url(#p27ac108418)" style="fill: #ff0000"/>
   </g>
   <g id="patch_61">
    <path d="M 426.494515 566.8 
L 434.040721 566.8 
L 434.040721 196.279609 
L 426.494515 196.279609 
z
" clip-path="url(#p27ac108418)" style="fill: #ff0000"/>
   </g>
   <g id="patch_62">
    <path d="M 430.267618 566.8 
L 437.813824 566.8 
L 437.813824 193.837266 
L 430.267618 193.837266 
z
" clip-path="url(#p27ac108418)" style="fill: #ff0000"/>
   </g>
   <g id="patch_63">
    <path d="M 434.040721 566.8 
L 441.586927 566.8 
L 441.586927 194.896016 
L 434.040721 194.896016 
z
" clip-path="url(#p27ac108418)" style="fill: #ff0000"/>
   </g>
   <g id="patch_64">
    <path d="M 437.813824 566.8 
L 445.36003 566.8 
L 445.36003 194.775703 
L 437.813824 194.775703 
z
" clip-path="url(#p27ac108418)" style="fill: #ff0000"/>
   </g>
   <g id="patch_65">
    <path d="M 441.586927 566.8 
L 449.133133 566.8 
L 449.133133 194.011719 
L 441.586927 194.011719 
z
" clip-path="url(#p27ac108418)" style="fill: #ff0000"/>
   </g>
   <g id="patch_66">
    <path d="M 445.36003 566.8 
L 452.906236 566.8 
L 452.906236 194.053828 
L 445.36003 194.053828 
z
" clip-path="url(#p27ac108418)" style="fill: #ff0000"/>
   </g>
   <g id="patch_67">
    <path d="M 449.133133 566.8 
L 456.679339 566.8 
L 456.679339 193.867344 
L 449.133133 193.867344 
z
" clip-path="url(#p27ac108418)" style="fill: #ff0000"/>
   </g>
   <g id="patch_68">
    <path d="M 452.906236 566.8 
L 460.452442 566.8 
L 460.452442 193.404141 
L 452.906236 193.404141 
z
" clip-path="url(#p27ac108418)" style="fill: #ff0000"/>
   </g>
   <g id="patch_69">
    <path d="M 456.679339 566.8 
L 464.225545 566.8 
L 464.225545 191.467109 
L 456.679339 191.467109 
z
" clip-path="url(#p27ac108418)" style="fill: #ff0000"/>
   </g>
   <g id="patch_70">
    <path d="M 460.452442 566.8 
L 467.998648 566.8 
L 467.998648 193.380078 
L 460.452442 193.380078 
z
" clip-path="url(#p27ac108418)" style="fill: #ff0000"/>
   </g>
   <g id="patch_71">
    <path d="M 464.225545 566.8 
L 471.771751 566.8 
L 471.771751 193.337969 
L 464.225545 193.337969 
z
" clip-path="url(#p27ac108418)" style="fill: #ff0000"/>
   </g>
   <g id="patch_72">
    <path d="M 467.998648 566.8 
L 475.544853 566.8 
L 475.544853 194.613281 
L 467.998648 194.613281 
z
" clip-path="url(#p27ac108418)" style="fill: #ff0000"/>
   </g>
   <g id="patch_73">
    <path d="M 471.771751 566.8 
L 479.317956 566.8 
L 479.317956 196.448047 
L 471.771751 196.448047 
z
" clip-path="url(#p27ac108418)" style="fill: #ff0000"/>
   </g>
   <g id="patch_74">
    <path d="M 475.544853 566.8 
L 483.091059 566.8 
L 483.091059 196.592422 
L 475.544853 196.592422 
z
" clip-path="url(#p27ac108418)" style="fill: #ff0000"/>
   </g>
   <g id="patch_75">
    <path d="M 479.317956 566.8 
L 486.864162 566.8 
L 486.864162 195.605859 
L 479.317956 195.605859 
z
" clip-path="url(#p27ac108418)" style="fill: #ff0000"/>
   </g>
   <g id="patch_76">
    <path d="M 483.091059 566.8 
L 490.637265 566.8 
L 490.637265 196.309687 
L 483.091059 196.309687 
z
" clip-path="url(#p27ac108418)" style="fill: #ff0000"/>
   </g>
   <g id="patch_77">
    <path d="M 486.864162 566.8 
L 494.410368 566.8 
L 494.410368 196.845078 
L 486.864162 196.845078 
z
" clip-path="url(#p27ac108418)" style="fill: #ff0000"/>
   </g>
   <g id="patch_78">
    <path d="M 490.637265 566.8 
L 498.183471 566.8 
L 498.183471 153.099453 
L 490.637265 153.099453 
z
" clip-path="url(#p27ac108418)" style="fill: #ff0000"/>
   </g>
   <g id="patch_79">
    <path d="M 494.410368 566.8 
L 501.956574 566.8 
L 501.956574 164.240391 
L 494.410368 164.240391 
z
" clip-path="url(#p27ac108418)" style="fill: #ff0000"/>
   </g>
   <g id="patch_80">
    <path d="M 498.183471 566.8 
L 505.729677 566.8 
L 505.729677 172.018594 
L 498.183471 172.018594 
z
" clip-path="url(#p27ac108418)" style="fill: #ff0000"/>
   </g>
   <g id="patch_81">
    <path d="M 501.956574 566.8 
L 509.50278 566.8 
L 509.50278 177.210078 
L 501.956574 177.210078 
z
" clip-path="url(#p27ac108418)" style="fill: #ff0000"/>
   </g>
   <g id="patch_82">
    <path d="M 505.729677 566.8 
L 513.275883 566.8 
L 513.275883 180.229922 
L 505.729677 180.229922 
z
" clip-path="url(#p27ac108418)" style="fill: #ff0000"/>
   </g>
   <g id="patch_83">
    <path d="M 509.50278 566.8 
L 517.048986 566.8 
L 517.048986 181.451094 
L 509.50278 181.451094 
z
" clip-path="url(#p27ac108418)" style="fill: #ff0000"/>
   </g>
   <g id="patch_84">
    <path d="M 513.275883 566.8 
L 520.822089 566.8 
L 520.822089 181.920313 
L 513.275883 181.920313 
z
" clip-path="url(#p27ac108418)" style="fill: #ff0000"/>
   </g>
   <g id="patch_85">
    <path d="M 517.048986 566.8 
L 524.595192 566.8 
L 524.595192 184.049844 
L 517.048986 184.049844 
z
" clip-path="url(#p27ac108418)" style="fill: #ff0000"/>
   </g>
   <g id="patch_86">
    <path d="M 520.822089 566.8 
L 528.368295 566.8 
L 528.368295 184.6875 
L 520.822089 184.6875 
z
" clip-path="url(#p27ac108418)" style="fill: #ff0000"/>
   </g>
   <g id="patch_87">
    <path d="M 524.595192 566.8 
L 532.141397 566.8 
L 532.141397 185.698125 
L 524.595192 185.698125 
z
" clip-path="url(#p27ac108418)" style="fill: #ff0000"/>
   </g>
   <g id="patch_88">
    <path d="M 528.368295 566.8 
L 535.9145 566.8 
L 535.9145 186.028984 
L 528.368295 186.028984 
z
" clip-path="url(#p27ac108418)" style="fill: #ff0000"/>
   </g>
   <g id="patch_89">
    <path d="M 532.141397 566.8 
L 539.687603 566.8 
L 539.687603 186.095156 
L 532.141397 186.095156 
z
" clip-path="url(#p27ac108418)" style="fill: #ff0000"/>
   </g>
   <g id="patch_90">
    <path d="M 535.9145 566.8 
L 543.460706 566.8 
L 543.460706 187.063672 
L 535.9145 187.063672 
z
" clip-path="url(#p27ac108418)" style="fill: #ff0000"/>
   </g>
   <g id="patch_91">
    <path d="M 539.687603 566.8 
L 547.233809 566.8 
L 547.233809 187.111797 
L 539.687603 187.111797 
z
" clip-path="url(#p27ac108418)" style="fill: #ff0000"/>
   </g>
   <g id="patch_92">
    <path d="M 543.460706 566.8 
L 551.006912 566.8 
L 551.006912 187.683281 
L 543.460706 187.683281 
z
" clip-path="url(#p27ac108418)" style="fill: #ff0000"/>
   </g>
   <g id="patch_93">
    <path d="M 547.233809 566.8 
L 554.780015 566.8 
L 554.780015 186.221484 
L 547.233809 186.221484 
z
" clip-path="url(#p27ac108418)" style="fill: #ff0000"/>
   </g>
   <g id="patch_94">
    <path d="M 551.006912 566.8 
L 558.553118 566.8 
L 558.553118 187.779531 
L 551.006912 187.779531 
z
" clip-path="url(#p27ac108418)" style="fill: #ff0000"/>
   </g>
   <g id="patch_95">
    <path d="M 554.780015 566.8 
L 562.326221 566.8 
L 562.326221 187.851719 
L 554.780015 187.851719 
z
" clip-path="url(#p27ac108418)" style="fill: #ff0000"/>
   </g>
   <g id="patch_96">
    <path d="M 558.553118 566.8 
L 566.099324 566.8 
L 566.099324 188.140469 
L 558.553118 188.140469 
z
" clip-path="url(#p27ac108418)" style="fill: #ff0000"/>
   </g>
   <g id="patch_97">
    <path d="M 562.326221 566.8 
L 569.872427 566.8 
L 569.872427 189.030781 
L 562.326221 189.030781 
z
" clip-path="url(#p27ac108418)" style="fill: #ff0000"/>
   </g>
   <g id="patch_98">
    <path d="M 566.099324 566.8 
L 573.64553 566.8 
L 573.64553 190.721172 
L 566.099324 190.721172 
z
" clip-path="url(#p27ac108418)" style="fill: #ff0000"/>
   </g>
   <g id="patch_99">
    <path d="M 569.872427 566.8 
L 577.418633 566.8 
L 577.418633 193.993672 
L 569.872427 193.993672 
z
" clip-path="url(#p27ac108418)" style="fill: #ff0000"/>
   </g>
   <g id="patch_100">
    <path d="M 573.64553 566.8 
L 581.191736 566.8 
L 581.191736 196.628516 
L 573.64553 196.628516 
z
" clip-path="url(#p27ac108418)" style="fill: #ff0000"/>
   </g>
   <g id="patch_101">
    <path d="M 577.418633 566.8 
L 584.964838 566.8 
L 584.964838 197.320312 
L 577.418633 197.320312 
z
" clip-path="url(#p27ac108418)" style="fill: #ff0000"/>
   </g>
   <g id="patch_102">
    <path d="M 581.191736 566.8 
L 588.737941 566.8 
L 588.737941 196.995469 
L 581.191736 196.995469 
z
" clip-path="url(#p27ac108418)" style="fill: #ff0000"/>
   </g>
   <g id="patch_103">
    <path d="M 584.964838 566.8 
L 592.511044 566.8 
L 592.511044 198.168516 
L 584.964838 198.168516 
z
" clip-path="url(#p27ac108418)" style="fill: #ff0000"/>
   </g>
   <g id="patch_104">
    <path d="M 588.737941 566.8 
L 596.284147 566.8 
L 596.284147 197.29625 
L 588.737941 197.29625 
z
" clip-path="url(#p27ac108418)" style="fill: #ff0000"/>
   </g>
   <g id="patch_105">
    <path d="M 592.511044 566.8 
L 600.05725 566.8 
L 600.05725 196.616484 
L 592.511044 196.616484 
z
" clip-path="url(#p27ac108418)" style="fill: #ff0000"/>
   </g>
   <g id="patch_106">
    <path d="M 596.284147 566.8 
L 603.830353 566.8 
L 603.830353 195.491562 
L 596.284147 195.491562 
z
" clip-path="url(#p27ac108418)" style="fill: #ff0000"/>
   </g>
   <g id="patch_107">
    <path d="M 600.05725 566.8 
L 607.603456 566.8 
L 607.603456 193.656797 
L 600.05725 193.656797 
z
" clip-path="url(#p27ac108418)" style="fill: #ff0000"/>
   </g>
   <g id="patch_108">
    <path d="M 603.830353 566.8 
L 611.376559 566.8 
L 611.376559 195.473516 
L 603.830353 195.473516 
z
" clip-path="url(#p27ac108418)" style="fill: #ff0000"/>
   </g>
   <g id="patch_109">
    <path d="M 607.603456 566.8 
L 615.149662 566.8 
L 615.149662 196.664609 
L 607.603456 196.664609 
z
" clip-path="url(#p27ac108418)" style="fill: #ff0000"/>
   </g>
   <g id="patch_110">
    <path d="M 611.376559 566.8 
L 618.922765 566.8 
L 618.922765 198.667813 
L 611.376559 198.667813 
z
" clip-path="url(#p27ac108418)" style="fill: #ff0000"/>
   </g>
   <g id="patch_111">
    <path d="M 615.149662 566.8 
L 622.695868 566.8 
L 622.695868 199.022734 
L 615.149662 199.022734 
z
" clip-path="url(#p27ac108418)" style="fill: #ff0000"/>
   </g>
   <g id="patch_112">
    <path d="M 618.922765 566.8 
L 626.468971 566.8 
L 626.468971 200.695078 
L 618.922765 200.695078 
z
" clip-path="url(#p27ac108418)" style="fill: #ff0000"/>
   </g>
   <g id="patch_113">
    <path d="M 622.695868 566.8 
L 630.242074 566.8 
L 630.242074 202.247109 
L 622.695868 202.247109 
z
" clip-path="url(#p27ac108418)" style="fill: #ff0000"/>
   </g>
   <g id="patch_114">
    <path d="M 626.468971 566.8 
L 634.015177 566.8 
L 634.015177 205.435391 
L 626.468971 205.435391 
z
" clip-path="url(#p27ac108418)" style="fill: #ff0000"/>
   </g>
   <g id="patch_115">
    <path d="M 630.242074 566.8 
L 637.788279 566.8 
L 637.788279 207.564922 
L 630.242074 207.564922 
z
" clip-path="url(#p27ac108418)" style="fill: #ff0000"/>
   </g>
   <g id="patch_116">
    <path d="M 634.015177 566.8 
L 641.561382 566.8 
L 641.561382 210.566719 
L 634.015177 210.566719 
z
" clip-path="url(#p27ac108418)" style="fill: #ff0000"/>
   </g>
   <g id="patch_117">
    <path d="M 637.788279 566.8 
L 645.334485 566.8 
L 645.334485 209.381641 
L 637.788279 209.381641 
z
" clip-path="url(#p27ac108418)" style="fill: #ff0000"/>
   </g>
   <g id="patch_118">
    <path d="M 645.334485 566.8 
L 652.880691 566.8 
L 652.880691 209.345547 
L 645.334485 209.345547 
z
" clip-path="url(#p27ac108418)" style="fill: #ff0000"/>
   </g>
   <g id="patch_119">
    <path d="M 649.107588 566.8 
L 656.653794 566.8 
L 656.653794 211.210391 
L 649.107588 211.210391 
z
" clip-path="url(#p27ac108418)" style="fill: #ff0000"/>
   </g>
   <g id="patch_120">
    <path d="M 652.880691 566.8 
L 660.426897 566.8 
L 660.426897 206.933281 
L 652.880691 206.933281 
z
" clip-path="url(#p27ac108418)" style="fill: #ff0000"/>
   </g>
   <g id="patch_121">
    <path d="M 656.653794 566.8 
L 664.2 566.8 
L 664.2 207.817578 
L 656.653794 207.817578 
z
" clip-path="url(#p27ac108418)" style="fill: #ff0000"/>
   </g>
   <g id="patch_122">
    <path d="M 660.426897 566.8 
L 667.973103 566.8 
L 667.973103 208.725937 
L 660.426897 208.725937 
z
" clip-path="url(#p27ac108418)" style="fill: #ff0000"/>
   </g>
   <g id="patch_123">
    <path d="M 664.2 566.8 
L 671.746206 566.8 
L 671.746206 211.360781 
L 664.2 211.360781 
z
" clip-path="url(#p27ac108418)" style="fill: #ff0000"/>
   </g>
   <g id="patch_124">
    <path d="M 667.973103 566.8 
L 675.519309 566.8 
L 675.519309 209.273359 
L 667.973103 209.273359 
z
" clip-path="url(#p27ac108418)" style="fill: #ff0000"/>
   </g>
   <g id="patch_125">
    <path d="M 671.746206 566.8 
L 679.292412 566.8 
L 679.292412 210.241875 
L 671.746206 210.241875 
z
" clip-path="url(#p27ac108418)" style="fill: #ff0000"/>
   </g>
   <g id="patch_126">
    <path d="M 675.519309 566.8 
L 683.065515 566.8 
L 683.065515 210.247891 
L 675.519309 210.247891 
z
" clip-path="url(#p27ac108418)" style="fill: #ff0000"/>
   </g>
   <g id="patch_127">
    <path d="M 679.292412 566.8 
L 686.838618 566.8 
L 686.838618 213.153437 
L 679.292412 213.153437 
z
" clip-path="url(#p27ac108418)" style="fill: #ff0000"/>
   </g>
   <g id="patch_128">
    <path d="M 683.065515 566.8 
L 690.611721 566.8 
L 690.611721 217.147812 
L 683.065515 217.147812 
z
" clip-path="url(#p27ac108418)" style="fill: #ff0000"/>
   </g>
   <g id="patch_129">
    <path d="M 686.838618 566.8 
L 694.384823 566.8 
L 694.384823 217.213984 
L 686.838618 217.213984 
z
" clip-path="url(#p27ac108418)" style="fill: #ff0000"/>
   </g>
   <g id="patch_130">
    <path d="M 690.611721 566.8 
L 698.157926 566.8 
L 698.157926 220.907578 
L 690.611721 220.907578 
z
" clip-path="url(#p27ac108418)" style="fill: #ff0000"/>
   </g>
   <g id="patch_131">
    <path d="M 694.384823 566.8 
L 701.931029 566.8 
L 701.931029 227.825547 
L 694.384823 227.825547 
z
" clip-path="url(#p27ac108418)" style="fill: #ff0000"/>
   </g>
   <g id="patch_132">
    <path d="M 698.157926 566.8 
L 705.704132 566.8 
L 705.704132 231.862031 
L 698.157926 231.862031 
z
" clip-path="url(#p27ac108418)" style="fill: #ff0000"/>
   </g>
   <g id="patch_133">
    <path d="M 701.931029 566.8 
L 709.477235 566.8 
L 709.477235 230.731094 
L 701.931029 230.731094 
z
" clip-path="url(#p27ac108418)" style="fill: #ff0000"/>
   </g>
   <g id="patch_134">
    <path d="M 705.704132 566.8 
L 713.250338 566.8 
L 713.250338 230.027266 
L 705.704132 230.027266 
z
" clip-path="url(#p27ac108418)" style="fill: #ff0000"/>
   </g>
   <g id="patch_135">
    <path d="M 709.477235 566.8 
L 717.023441 566.8 
L 717.023441 229.521953 
L 709.477235 229.521953 
z
" clip-path="url(#p27ac108418)" style="fill: #ff0000"/>
   </g>
   <g id="patch_136">
    <path d="M 713.250338 566.8 
L 720.796544 566.8 
L 720.796544 229.660313 
L 713.250338 229.660313 
z
" clip-path="url(#p27ac108418)" style="fill: #ff0000"/>
   </g>
   <g id="patch_137">
    <path d="M 717.023441 566.8 
L 724.569647 566.8 
L 724.569647 228.108281 
L 717.023441 228.108281 
z
" clip-path="url(#p27ac108418)" style="fill: #ff0000"/>
   </g>
   <g id="patch_138">
    <path d="M 720.796544 566.8 
L 728.34275 566.8 
L 728.34275 223.548438 
L 720.796544 223.548438 
z
" clip-path="url(#p27ac108418)" style="fill: #ff0000"/>
   </g>
   <g id="patch_139">
    <path d="M 724.569647 566.8 
L 732.115853 566.8 
L 732.115853 223.716875 
L 724.569647 223.716875 
z
" clip-path="url(#p27ac108418)" style="fill: #ff0000"/>
   </g>
   <g id="patch_140">
    <path d="M 728.34275 566.8 
L 735.888956 566.8 
L 735.888956 223.355938 
L 728.34275 223.355938 
z
" clip-path="url(#p27ac108418)" style="fill: #ff0000"/>
   </g>
   <g id="patch_141">
    <path d="M 732.115853 566.8 
L 739.662059 566.8 
L 739.662059 224.926016 
L 732.115853 224.926016 
z
" clip-path="url(#p27ac108418)" style="fill: #ff0000"/>
   </g>
   <g id="patch_142">
    <path d="M 735.888956 566.8 
L 743.435162 566.8 
L 743.435162 225.070391 
L 735.888956 225.070391 
z
" clip-path="url(#p27ac108418)" style="fill: #ff0000"/>
   </g>
   <g id="patch_143">
    <path d="M 739.662059 566.8 
L 747.208264 566.8 
L 747.208264 225.918594 
L 739.662059 225.918594 
z
" clip-path="url(#p27ac108418)" style="fill: #ff0000"/>
   </g>
   <g id="patch_144">
    <path d="M 743.435162 566.8 
L 750.981367 566.8 
L 750.981367 225.972734 
L 743.435162 225.972734 
z
" clip-path="url(#p27ac108418)" style="fill: #ff0000"/>
   </g>
   <g id="patch_145">
    <path d="M 747.208264 566.8 
L 754.75447 566.8 
L 754.75447 225.389219 
L 747.208264 225.389219 
z
" clip-path="url(#p27ac108418)" style="fill: #ff0000"/>
   </g>
   <g id="patch_146">
    <path d="M 750.981367 566.8 
L 758.527573 566.8 
L 758.527573 225.335078 
L 750.981367 225.335078 
z
" clip-path="url(#p27ac108418)" style="fill: #ff0000"/>
   </g>
   <g id="patch_147">
    <path d="M 754.75447 566.8 
L 762.300676 566.8 
L 762.300676 223.512344 
L 754.75447 223.512344 
z
" clip-path="url(#p27ac108418)" style="fill: #ff0000"/>
   </g>
   <g id="patch_148">
    <path d="M 758.527573 566.8 
L 766.073779 566.8 
L 766.073779 219.921016 
L 758.527573 219.921016 
z
" clip-path="url(#p27ac108418)" style="fill: #ff0000"/>
   </g>
   <g id="patch_149">
    <path d="M 762.300676 566.8 
L 769.846882 566.8 
L 769.846882 219.060781 
L 762.300676 219.060781 
z
" clip-path="url(#p27ac108418)" style="fill: #ff0000"/>
   </g>
   <g id="patch_150">
    <path d="M 766.073779 566.8 
L 773.619985 566.8 
L 773.619985 217.827578 
L 766.073779 217.827578 
z
" clip-path="url(#p27ac108418)" style="fill: #ff0000"/>
   </g>
   <g id="patch_151">
    <path d="M 769.846882 566.8 
L 777.393088 566.8 
L 777.393088 217.911797 
L 769.846882 217.911797 
z
" clip-path="url(#p27ac108418)" style="fill: #ff0000"/>
   </g>
   <g id="patch_152">
    <path d="M 773.619985 566.8 
L 781.166191 566.8 
L 781.166191 215.764219 
L 773.619985 215.764219 
z
" clip-path="url(#p27ac108418)" style="fill: #ff0000"/>
   </g>
   <g id="patch_153">
    <path d="M 777.393088 566.8 
L 784.939294 566.8 
L 784.939294 183.634766 
L 777.393088 183.634766 
z
" clip-path="url(#p27ac108418)" style="fill: #ff0000"/>
   </g>
   <g id="patch_154">
    <path d="M 781.166191 566.8 
L 788.712397 566.8 
L 788.712397 184.886016 
L 781.166191 184.886016 
z
" clip-path="url(#p27ac108418)" style="fill: #ff0000"/>
   </g>
   <g id="patch_155">
    <path d="M 784.939294 566.8 
L 792.4855 566.8 
L 792.4855 187.111797 
L 784.939294 187.111797 
z
" clip-path="url(#p27ac108418)" style="fill: #ff0000"/>
   </g>
   <g id="patch_156">
    <path d="M 788.712397 566.8 
L 796.258603 566.8 
L 796.258603 190.227891 
L 788.712397 190.227891 
z
" clip-path="url(#p27ac108418)" style="fill: #ff0000"/>
   </g>
   <g id="patch_157">
    <path d="M 792.4855 566.8 
L 800.031705 566.8 
L 800.031705 192.411563 
L 792.4855 192.411563 
z
" clip-path="url(#p27ac108418)" style="fill: #ff0000"/>
   </g>
   <g id="patch_158">
    <path d="M 796.258603 566.8 
L 803.804808 566.8 
L 803.804808 193.548516 
L 796.258603 193.548516 
z
" clip-path="url(#p27ac108418)" style="fill: #ff0000"/>
   </g>
   <g id="patch_159">
    <path d="M 800.031705 566.8 
L 807.577911 566.8 
L 807.577911 192.922891 
L 800.031705 192.922891 
z
" clip-path="url(#p27ac108418)" style="fill: #ff0000"/>
   </g>
   <g id="patch_160">
    <path d="M 803.804808 566.8 
L 811.351014 566.8 
L 811.351014 196.754844 
L 803.804808 196.754844 
z
" clip-path="url(#p27ac108418)" style="fill: #ff0000"/>
   </g>
   <g id="patch_161">
    <path d="M 807.577911 566.8 
L 815.124117 566.8 
L 815.124117 196.321719 
L 807.577911 196.321719 
z
" clip-path="url(#p27ac108418)" style="fill: #ff0000"/>
   </g>
   <g id="patch_162">
    <path d="M 811.351014 566.8 
L 818.89722 566.8 
L 818.89722 199.383672 
L 811.351014 199.383672 
z
" clip-path="url(#p27ac108418)" style="fill: #ff0000"/>
   </g>
   <g id="patch_163">
    <path d="M 815.124117 566.8 
L 822.670323 566.8 
L 822.670323 197.121797 
L 815.124117 197.121797 
z
" clip-path="url(#p27ac108418)" style="fill: #ff0000"/>
   </g>
   <g id="patch_164">
    <path d="M 818.89722 566.8 
L 826.443426 566.8 
L 826.443426 198.806172 
L 818.89722 198.806172 
z
" clip-path="url(#p27ac108418)" style="fill: #ff0000"/>
   </g>
   <g id="patch_165">
    <path d="M 822.670323 566.8 
L 830.216529 566.8 
L 830.216529 199.816797 
L 822.670323 199.816797 
z
" clip-path="url(#p27ac108418)" style="fill: #ff0000"/>
   </g>
   <g id="patch_166">
    <path d="M 826.443426 566.8 
L 833.989632 566.8 
L 833.989632 200.388281 
L 826.443426 200.388281 
z
" clip-path="url(#p27ac108418)" style="fill: #ff0000"/>
   </g>
   <g id="patch_167">
    <path d="M 830.216529 566.8 
L 837.762735 566.8 
L 837.762735 201.170313 
L 830.216529 201.170313 
z
" clip-path="url(#p27ac108418)" style="fill: #ff0000"/>
   </g>
   <g id="patch_168">
    <path d="M 833.989632 566.8 
L 841.535838 566.8 
L 841.535838 200.959766 
L 833.989632 200.959766 
z
" clip-path="url(#p27ac108418)" style="fill: #ff0000"/>
   </g>
   <g id="patch_169">
    <path d="M 837.762735 566.8 
L 845.308941 566.8 
L 845.308941 200.436406 
L 837.762735 200.436406 
z
" clip-path="url(#p27ac108418)" style="fill: #ff0000"/>
   </g>
   <g id="patch_170">
    <path d="M 841.535838 566.8 
L 849.082044 566.8 
L 849.082044 201.224453 
L 841.535838 201.224453 
z
" clip-path="url(#p27ac108418)" style="fill: #ff0000"/>
   </g>
   <g id="patch_171">
    <path d="M 845.308941 566.8 
L 852.855147 566.8 
L 852.855147 201.435 
L 845.308941 201.435 
z
" clip-path="url(#p27ac108418)" style="fill: #ff0000"/>
   </g>
   <g id="patch_172">
    <path d="M 849.082044 566.8 
L 856.628249 566.8 
L 856.628249 201.471094 
L 849.082044 201.471094 
z
" clip-path="url(#p27ac108418)" style="fill: #ff0000"/>
   </g>
   <g id="patch_173">
    <path d="M 852.855147 566.8 
L 860.401352 566.8 
L 860.401352 202.295234 
L 852.855147 202.295234 
z
" clip-path="url(#p27ac108418)" style="fill: #ff0000"/>
   </g>
   <g id="patch_174">
    <path d="M 856.628249 566.8 
L 864.174455 566.8 
L 864.174455 201.477109 
L 856.628249 201.477109 
z
" clip-path="url(#p27ac108418)" style="fill: #ff0000"/>
   </g>
   <g id="patch_175">
    <path d="M 860.401352 566.8 
L 867.947558 566.8 
L 867.947558 201.483125 
L 860.401352 201.483125 
z
" clip-path="url(#p27ac108418)" style="fill: #ff0000"/>
   </g>
   <g id="patch_176">
    <path d="M 864.174455 566.8 
L 871.720661 566.8 
L 871.720661 201.729766 
L 864.174455 201.729766 
z
" clip-path="url(#p27ac108418)" style="fill: #ff0000"/>
   </g>
   <g id="patch_177">
    <path d="M 867.947558 566.8 
L 875.493764 566.8 
L 875.493764 202.211016 
L 867.947558 202.211016 
z
" clip-path="url(#p27ac108418)" style="fill: #ff0000"/>
   </g>
   <g id="patch_178">
    <path d="M 871.720661 566.8 
L 879.266867 566.8 
L 879.266867 202.307266 
L 871.720661 202.307266 
z
" clip-path="url(#p27ac108418)" style="fill: #ff0000"/>
   </g>
   <g id="patch_179">
    <path d="M 875.493764 566.8 
L 883.03997 566.8 
L 883.03997 201.747813 
L 875.493764 201.747813 
z
" clip-path="url(#p27ac108418)" style="fill: #ff0000"/>
   </g>
   <g id="patch_180">
    <path d="M 879.266867 566.8 
L 886.813073 566.8 
L 886.813073 202.078672 
L 879.266867 202.078672 
z
" clip-path="url(#p27ac108418)" style="fill: #ff0000"/>
   </g>
   <g id="patch_181">
    <path d="M 883.03997 566.8 
L 890.586176 566.8 
L 890.586176 202.313281 
L 883.03997 202.313281 
z
" clip-path="url(#p27ac108418)" style="fill: #ff0000"/>
   </g>
   <g id="patch_182">
    <path d="M 886.813073 566.8 
L 894.359279 566.8 
L 894.359279 202.349375 
L 886.813073 202.349375 
z
" clip-path="url(#p27ac108418)" style="fill: #ff0000"/>
   </g>
   <g id="patch_183">
    <path d="M 890.586176 566.8 
L 898.132382 566.8 
L 898.132382 201.880156 
L 890.586176 201.880156 
z
" clip-path="url(#p27ac108418)" style="fill: #ff0000"/>
   </g>
   <g id="patch_184">
    <path d="M 894.359279 566.8 
L 901.905485 566.8 
L 901.905485 202.265156 
L 894.359279 202.265156 
z
" clip-path="url(#p27ac108418)" style="fill: #ff0000"/>
   </g>
   <g id="patch_185">
    <path d="M 898.132382 566.8 
L 905.678588 566.8 
L 905.678588 201.892188 
L 898.132382 201.892188 
z
" clip-path="url(#p27ac108418)" style="fill: #ff0000"/>
   </g>
   <g id="patch_186">
    <path d="M 901.905485 566.8 
L 909.45169 566.8 
L 909.45169 201.82 
L 901.905485 201.82 
z
" clip-path="url(#p27ac108418)" style="fill: #ff0000"/>
   </g>
   <g id="patch_187">
    <path d="M 905.678588 566.8 
L 913.224793 566.8 
L 913.224793 202.247109 
L 905.678588 202.247109 
z
" clip-path="url(#p27ac108418)" style="fill: #ff0000"/>
   </g>
   <g id="patch_188">
    <path d="M 909.45169 566.8 
L 916.997896 566.8 
L 916.997896 201.555313 
L 909.45169 201.555313 
z
" clip-path="url(#p27ac108418)" style="fill: #ff0000"/>
   </g>
   <g id="patch_189">
    <path d="M 913.224793 566.8 
L 920.770999 566.8 
L 920.770999 201.699687 
L 913.224793 201.699687 
z
" clip-path="url(#p27ac108418)" style="fill: #ff0000"/>
   </g>
   <g id="patch_190">
    <path d="M 916.997896 566.8 
L 924.544102 566.8 
L 924.544102 201.693672 
L 916.997896 201.693672 
z
" clip-path="url(#p27ac108418)" style="fill: #ff0000"/>
   </g>
   <g id="patch_191">
    <path d="M 920.770999 566.8 
L 928.317205 566.8 
L 928.317205 202.096719 
L 920.770999 202.096719 
z
" clip-path="url(#p27ac108418)" style="fill: #ff0000"/>
   </g>
   <g id="patch_192">
    <path d="M 924.544102 566.8 
L 932.090308 566.8 
L 932.090308 201.663594 
L 924.544102 201.663594 
z
" clip-path="url(#p27ac108418)" style="fill: #ff0000"/>
   </g>
   <g id="patch_193">
    <path d="M 928.317205 566.8 
L 935.863411 566.8 
L 935.863411 200.803359 
L 928.317205 200.803359 
z
" clip-path="url(#p27ac108418)" style="fill: #ff0000"/>
   </g>
   <g id="patch_194">
    <path d="M 932.090308 566.8 
L 939.636514 566.8 
L 939.636514 201.013906 
L 932.090308 201.013906 
z
" clip-path="url(#p27ac108418)" style="fill: #ff0000"/>
   </g>
   <g id="patch_195">
    <path d="M 935.863411 566.8 
L 943.409617 566.8 
L 943.409617 200.610859 
L 935.863411 200.610859 
z
" clip-path="url(#p27ac108418)" style="fill: #ff0000"/>
   </g>
   <g id="patch_196">
    <path d="M 939.636514 566.8 
L 947.18272 566.8 
L 947.18272 200.135625 
L 939.636514 200.135625 
z
" clip-path="url(#p27ac108418)" style="fill: #ff0000"/>
   </g>
   <g id="patch_197">
    <path d="M 943.409617 566.8 
L 950.955823 566.8 
L 950.955823 199.251328 
L 943.409617 199.251328 
z
" clip-path="url(#p27ac108418)" style="fill: #ff0000"/>
   </g>
   <g id="patch_198">
    <path d="M 947.18272 566.8 
L 954.728926 566.8 
L 954.728926 198.216641 
L 947.18272 198.216641 
z
" clip-path="url(#p27ac108418)" style="fill: #ff0000"/>
   </g>
   <g id="patch_199">
    <path d="M 950.955823 566.8 
L 958.502029 566.8 
L 958.502029 198.018125 
L 950.955823 198.018125 
z
" clip-path="url(#p27ac108418)" style="fill: #ff0000"/>
   </g>
   <g id="patch_200">
    <path d="M 954.728926 566.8 
L 962.275131 566.8 
L 962.275131 196.604453 
L 954.728926 196.604453 
z
" clip-path="url(#p27ac108418)" style="fill: #ff0000"/>
   </g>
   <g id="patch_201">
    <path d="M 958.502029 566.8 
L 966.048234 566.8 
L 966.048234 195.232891 
L 958.502029 195.232891 
z
" clip-path="url(#p27ac108418)" style="fill: #ff0000"/>
   </g>
   <g id="patch_202">
    <path d="M 962.275131 566.8 
L 969.821337 566.8 
L 969.821337 194.661406 
L 962.275131 194.661406 
z
" clip-path="url(#p27ac108418)" style="fill: #ff0000"/>
   </g>
   <g id="patch_203">
    <path d="M 966.048234 566.8 
L 973.59444 566.8 
L 973.59444 194.877969 
L 966.048234 194.877969 
z
" clip-path="url(#p27ac108418)" style="fill: #ff0000"/>
   </g>
   <g id="patch_204">
    <path d="M 969.821337 566.8 
L 977.367543 566.8 
L 977.367543 196.460078 
L 969.821337 196.460078 
z
" clip-path="url(#p27ac108418)" style="fill: #ff0000"/>
   </g>
   <g id="patch_205">
    <path d="M 973.59444 566.8 
L 981.140646 566.8 
L 981.140646 196.243516 
L 973.59444 196.243516 
z
" clip-path="url(#p27ac108418)" style="fill: #ff0000"/>
   </g>
   <g id="patch_206">
    <path d="M 977.367543 566.8 
L 984.913749 566.8 
L 984.913749 198.018125 
L 977.367543 198.018125 
z
" clip-path="url(#p27ac108418)" style="fill: #ff0000"/>
   </g>
   <g id="patch_207">
    <path d="M 981.140646 566.8 
L 988.686852 566.8 
L 988.686852 197.572969 
L 981.140646 197.572969 
z
" clip-path="url(#p27ac108418)" style="fill: #ff0000"/>
   </g>
   <g id="patch_208">
    <path d="M 984.913749 566.8 
L 992.459955 566.8 
L 992.459955 198.054219 
L 984.913749 198.054219 
z
" clip-path="url(#p27ac108418)" style="fill: #ff0000"/>
   </g>
   <g id="patch_209">
    <path d="M 988.686852 566.8 
L 996.233058 566.8 
L 996.233058 197.921875 
L 988.686852 197.921875 
z
" clip-path="url(#p27ac108418)" style="fill: #ff0000"/>
   </g>
   <g id="patch_210">
    <path d="M 992.459955 566.8 
L 1000.006161 566.8 
L 1000.006161 197.380469 
L 992.459955 197.380469 
z
" clip-path="url(#p27ac108418)" style="fill: #ff0000"/>
   </g>
   <g id="patch_211">
    <path d="M 996.233058 566.8 
L 1003.779264 566.8 
L 1003.779264 197.855703 
L 996.233058 197.855703 
z
" clip-path="url(#p27ac108418)" style="fill: #ff0000"/>
   </g>
   <g id="patch_212">
    <path d="M 1000.006161 566.8 
L 1007.552367 566.8 
L 1007.552367 198.998672 
L 1000.006161 198.998672 
z
" clip-path="url(#p27ac108418)" style="fill: #ff0000"/>
   </g>
   <g id="patch_213">
    <path d="M 1003.779264 566.8 
L 1011.32547 566.8 
L 1011.32547 199.197187 
L 1003.779264 199.197187 
z
" clip-path="url(#p27ac108418)" style="fill: #ff0000"/>
   </g>
   <g id="patch_214">
    <path d="M 1007.552367 566.8 
L 1015.098573 566.8 
L 1015.098573 199.582188 
L 1007.552367 199.582188 
z
" clip-path="url(#p27ac108418)" style="fill: #ff0000"/>
   </g>
   <g id="patch_215">
    <path d="M 1011.32547 566.8 
L 1018.871675 566.8 
L 1018.871675 200.436406 
L 1011.32547 200.436406 
z
" clip-path="url(#p27ac108418)" style="fill: #ff0000"/>
   </g>
   <g id="patch_216">
    <path d="M 1015.098573 566.8 
L 1022.644778 566.8 
L 1022.644778 200.418359 
L 1015.098573 200.418359 
z
" clip-path="url(#p27ac108418)" style="fill: #ff0000"/>
   </g>
   <g id="patch_217">
    <path d="M 1018.871675 566.8 
L 1026.417881 566.8 
L 1026.417881 200.640938 
L 1018.871675 200.640938 
z
" clip-path="url(#p27ac108418)" style="fill: #ff0000"/>
   </g>
   <g id="patch_218">
    <path d="M 1022.644778 566.8 
L 1030.190984 566.8 
L 1030.190984 201.019922 
L 1022.644778 201.019922 
z
" clip-path="url(#p27ac108418)" style="fill: #ff0000"/>
   </g>
   <g id="patch_219">
    <path d="M 1026.417881 566.8 
L 1033.964087 566.8 
L 1033.964087 202.036563 
L 1026.417881 202.036563 
z
" clip-path="url(#p27ac108418)" style="fill: #ff0000"/>
   </g>
   <g id="patch_220">
    <path d="M 1030.190984 566.8 
L 1037.73719 566.8 
L 1037.73719 202.156875 
L 1030.190984 202.156875 
z
" clip-path="url(#p27ac108418)" style="fill: #ff0000"/>
   </g>
   <g id="patch_221">
    <path d="M 1033.964087 566.8 
L 1041.510293 566.8 
L 1041.510293 202.511797 
L 1033.964087 202.511797 
z
" clip-path="url(#p27ac108418)" style="fill: #ff0000"/>
   </g>
   <g id="patch_222">
    <path d="M 1037.73719 566.8 
L 1045.283396 566.8 
L 1045.283396 202.186953 
L 1037.73719 202.186953 
z
" clip-path="url(#p27ac108418)" style="fill: #ff0000"/>
   </g>
   <g id="patch_223">
    <path d="M 1041.510293 566.8 
L 1049.056499 566.8 
L 1049.056499 202.776484 
L 1041.510293 202.776484 
z
" clip-path="url(#p27ac108418)" style="fill: #ff0000"/>
   </g>
   <g id="patch_224">
    <path d="M 1045.283396 566.8 
L 1052.829602 566.8 
L 1052.829602 202.764453 
L 1045.283396 202.764453 
z
" clip-path="url(#p27ac108418)" style="fill: #ff0000"/>
   </g>
   <g id="patch_225">
    <path d="M 1049.056499 566.8 
L 1056.602705 566.8 
L 1056.602705 201.013906 
L 1049.056499 201.013906 
z
" clip-path="url(#p27ac108418)" style="fill: #ff0000"/>
   </g>
   <g id="patch_226">
    <path d="M 1052.829602 566.8 
L 1060.375808 566.8 
L 1060.375808 201.2425 
L 1052.829602 201.2425 
z
" clip-path="url(#p27ac108418)" style="fill: #ff0000"/>
   </g>
   <g id="patch_227">
    <path d="M 1056.602705 566.8 
L 1064.148911 566.8 
L 1064.148911 200.460469 
L 1056.602705 200.460469 
z
" clip-path="url(#p27ac108418)" style="fill: #ff0000"/>
   </g>
   <g id="patch_228">
    <path d="M 1060.375808 566.8 
L 1067.922014 566.8 
L 1067.922014 180.476562 
L 1060.375808 180.476562 
z
" clip-path="url(#p27ac108418)" style="fill: #ff0000"/>
   </g>
   <g id="patch_229">
    <path d="M 1064.148911 566.8 
L 1071.695116 566.8 
L 1071.695116 181.968437 
L 1064.148911 181.968437 
z
" clip-path="url(#p27ac108418)" style="fill: #ff0000"/>
   </g>
   <g id="patch_230">
    <path d="M 1067.922014 566.8 
L 1075.468219 566.8 
L 1075.468219 188.242734 
L 1067.922014 188.242734 
z
" clip-path="url(#p27ac108418)" style="fill: #ff0000"/>
   </g>
   <g id="patch_231">
    <path d="M 1071.695116 566.8 
L 1079.241322 566.8 
L 1079.241322 191.876172 
L 1071.695116 191.876172 
z
" clip-path="url(#p27ac108418)" style="fill: #ff0000"/>
   </g>
   <g id="patch_232">
    <path d="M 1075.468219 566.8 
L 1083.014425 566.8 
L 1083.014425 196.682656 
L 1075.468219 196.682656 
z
" clip-path="url(#p27ac108418)" style="fill: #ff0000"/>
   </g>
   <g id="patch_233">
    <path d="M 1079.241322 566.8 
L 1086.787528 566.8 
L 1086.787528 201.495156 
L 1079.241322 201.495156 
z
" clip-path="url(#p27ac108418)" style="fill: #ff0000"/>
   </g>
   <g id="patch_234">
    <path d="M 1083.014425 566.8 
L 1090.560631 566.8 
L 1090.560631 204.743594 
L 1083.014425 204.743594 
z
" clip-path="url(#p27ac108418)" style="fill: #ff0000"/>
   </g>
   <g id="patch_235">
    <path d="M 1086.787528 566.8 
L 1094.333734 566.8 
L 1094.333734 188.982656 
L 1086.787528 188.982656 
z
" clip-path="url(#p27ac108418)" style="fill: #ff0000"/>
   </g>
   <g id="patch_236">
    <path d="M 1094.333734 566.8 
L 1101.87994 566.8 
L 1101.87994 193.963594 
L 1094.333734 193.963594 
z
" clip-path="url(#p27ac108418)" style="fill: #ff0000"/>
   </g>
   <g id="patch_237">
    <path d="M 1098.106837 566.8 
L 1105.653043 566.8 
L 1105.653043 198.733984 
L 1098.106837 198.733984 
z
" clip-path="url(#p27ac108418)" style="fill: #ff0000"/>
   </g>
   <g id="patch_238">
    <path d="M 1101.87994 566.8 
L 1109.426146 566.8 
L 1109.426146 204.918047 
L 1101.87994 204.918047 
z
" clip-path="url(#p27ac108418)" style="fill: #ff0000"/>
   </g>
   <g id="patch_239">
    <path d="M 1105.653043 566.8 
L 1113.199249 566.8 
L 1113.199249 209.983203 
L 1105.653043 209.983203 
z
" clip-path="url(#p27ac108418)" style="fill: #ff0000"/>
   </g>
   <g id="patch_240">
    <path d="M 1109.426146 566.8 
L 1116.972352 566.8 
L 1116.972352 213.833203 
L 1109.426146 213.833203 
z
" clip-path="url(#p27ac108418)" style="fill: #ff0000"/>
   </g>
   <g id="patch_241">
    <path d="M 1113.199249 566.8 
L 1120.745455 566.8 
L 1120.745455 216.395859 
L 1113.199249 216.395859 
z
" clip-path="url(#p27ac108418)" style="fill: #ff0000"/>
   </g>
   <g id="matplotlib.axis_1">
    <g id="xtick_1">
     <g id="line2d_1">
      <defs>
       <path id="mb326f51050" d="M 0 0 
L 0 3.5 
" style="stroke: #000000; stroke-width: 0.8"/>
      </defs>
      <g>
       <use xlink:href="#mb326f51050" x="211.427648" y="320.4" style="stroke: #000000; stroke-width: 0.8"/>
      </g>
     </g>
     <g id="text_1">
      <!-- 00'00" -->
      <g transform="translate(195.02843 334.998438) scale(0.1 -0.1)">
       <defs>
        <path id="DejaVuSans-30" d="M 2034 4250 
Q 1547 4250 1301 3770 
Q 1056 3291 1056 2328 
Q 1056 1369 1301 889 
Q 1547 409 2034 409 
Q 2525 409 2770 889 
Q 3016 1369 3016 2328 
Q 3016 3291 2770 3770 
Q 2525 4250 2034 4250 
z
M 2034 4750 
Q 2819 4750 3233 4129 
Q 3647 3509 3647 2328 
Q 3647 1150 3233 529 
Q 2819 -91 2034 -91 
Q 1250 -91 836 529 
Q 422 1150 422 2328 
Q 422 3509 836 4129 
Q 1250 4750 2034 4750 
z
" transform="scale(0.015625)"/>
        <path id="DejaVuSans-27" d="M 1147 4666 
L 1147 2931 
L 616 2931 
L 616 4666 
L 1147 4666 
z
" transform="scale(0.015625)"/>
        <path id="DejaVuSans-22" d="M 1147 4666 
L 1147 2931 
L 616 2931 
L 616 4666 
L 1147 4666 
z
M 2328 4666 
L 2328 2931 
L 1797 2931 
L 1797 4666 
L 2328 4666 
z
" transform="scale(0.015625)"/>
       </defs>
       <use xlink:href="#DejaVuSans-30"/>
       <use xlink:href="#DejaVuSans-30" transform="translate(63.623047 0)"/>
       <use xlink:href="#DejaVuSans-27" transform="translate(127.246094 0)"/>
       <use xlink:href="#DejaVuSans-30" transform="translate(154.736328 0)"/>
       <use xlink:href="#DejaVuSans-30" transform="translate(218.359375 0)"/>
       <use xlink:href="#DejaVuSans-22" transform="translate(281.982422 0)"/>
      </g>
     </g>
    </g>
    <g id="xtick_2">
     <g id="line2d_2">
      <g>
       <use xlink:href="#mb326f51050" x="249.158678" y="320.4" style="stroke: #000000; stroke-width: 0.8"/>
      </g>
     </g>
     <g id="text_2">
      <!-- 00'10" -->
      <g transform="translate(232.759459 334.998438) scale(0.1 -0.1)">
       <defs>
        <path id="DejaVuSans-31" d="M 794 531 
L 1825 531 
L 1825 4091 
L 703 3866 
L 703 4441 
L 1819 4666 
L 2450 4666 
L 2450 531 
L 3481 531 
L 3481 0 
L 794 0 
L 794 531 
z
" transform="scale(0.015625)"/>
       </defs>
       <use xlink:href="#DejaVuSans-30"/>
       <use xlink:href="#DejaVuSans-30" transform="translate(63.623047 0)"/>
       <use xlink:href="#DejaVuSans-27" transform="translate(127.246094 0)"/>
       <use xlink:href="#DejaVuSans-31" transform="translate(154.736328 0)"/>
       <use xlink:href="#DejaVuSans-30" transform="translate(218.359375 0)"/>
       <use xlink:href="#DejaVuSans-22" transform="translate(281.982422 0)"/>
      </g>
     </g>
    </g>
    <g id="xtick_3">
     <g id="line2d_3">
      <g>
       <use xlink:href="#mb326f51050" x="286.889707" y="320.4" style="stroke: #000000; stroke-width: 0.8"/>
      </g>
     </g>
     <g id="text_3">
      <!-- 00'20" -->
      <g transform="translate(270.490488 334.998438) scale(0.1 -0.1)">
       <defs>
        <path id="DejaVuSans-32" d="M 1228 531 
L 3431 531 
L 3431 0 
L 469 0 
L 469 531 
Q 828 903 1448 1529 
Q 2069 2156 2228 2338 
Q 2531 2678 2651 2914 
Q 2772 3150 2772 3378 
Q 2772 3750 2511 3984 
Q 2250 4219 1831 4219 
Q 1534 4219 1204 4116 
Q 875 4013 500 3803 
L 500 4441 
Q 881 4594 1212 4672 
Q 1544 4750 1819 4750 
Q 2544 4750 2975 4387 
Q 3406 4025 3406 3419 
Q 3406 3131 3298 2873 
Q 3191 2616 2906 2266 
Q 2828 2175 2409 1742 
Q 1991 1309 1228 531 
z
" transform="scale(0.015625)"/>
       </defs>
       <use xlink:href="#DejaVuSans-30"/>
       <use xlink:href="#DejaVuSans-30" transform="translate(63.623047 0)"/>
       <use xlink:href="#DejaVuSans-27" transform="translate(127.246094 0)"/>
       <use xlink:href="#DejaVuSans-32" transform="translate(154.736328 0)"/>
       <use xlink:href="#DejaVuSans-30" transform="translate(218.359375 0)"/>
       <use xlink:href="#DejaVuSans-22" transform="translate(281.982422 0)"/>
      </g>
     </g>
    </g>
    <g id="xtick_4">
     <g id="line2d_4">
      <g>
       <use xlink:href="#mb326f51050" x="324.620736" y="320.4" style="stroke: #000000; stroke-width: 0.8"/>
      </g>
     </g>
     <g id="text_4">
      <!-- 00'30" -->
      <g transform="translate(308.221518 334.998438) scale(0.1 -0.1)">
       <defs>
        <path id="DejaVuSans-33" d="M 2597 2516 
Q 3050 2419 3304 2112 
Q 3559 1806 3559 1356 
Q 3559 666 3084 287 
Q 2609 -91 1734 -91 
Q 1441 -91 1130 -33 
Q 819 25 488 141 
L 488 750 
Q 750 597 1062 519 
Q 1375 441 1716 441 
Q 2309 441 2620 675 
Q 2931 909 2931 1356 
Q 2931 1769 2642 2001 
Q 2353 2234 1838 2234 
L 1294 2234 
L 1294 2753 
L 1863 2753 
Q 2328 2753 2575 2939 
Q 2822 3125 2822 3475 
Q 2822 3834 2567 4026 
Q 2313 4219 1838 4219 
Q 1578 4219 1281 4162 
Q 984 4106 628 3988 
L 628 4550 
Q 988 4650 1302 4700 
Q 1616 4750 1894 4750 
Q 2613 4750 3031 4423 
Q 3450 4097 3450 3541 
Q 3450 3153 3228 2886 
Q 3006 2619 2597 2516 
z
" transform="scale(0.015625)"/>
       </defs>
       <use xlink:href="#DejaVuSans-30"/>
       <use xlink:href="#DejaVuSans-30" transform="translate(63.623047 0)"/>
       <use xlink:href="#DejaVuSans-27" transform="translate(127.246094 0)"/>
       <use xlink:href="#DejaVuSans-33" transform="translate(154.736328 0)"/>
       <use xlink:href="#DejaVuSans-30" transform="translate(218.359375 0)"/>
       <use xlink:href="#DejaVuSans-22" transform="translate(281.982422 0)"/>
      </g>
     </g>
    </g>
    <g id="xtick_5">
     <g id="line2d_5">
      <g>
       <use xlink:href="#mb326f51050" x="362.351766" y="320.4" style="stroke: #000000; stroke-width: 0.8"/>
      </g>
     </g>
     <g id="text_5">
      <!-- 00'40" -->
      <g transform="translate(345.952547 334.998438) scale(0.1 -0.1)">
       <defs>
        <path id="DejaVuSans-34" d="M 2419 4116 
L 825 1625 
L 2419 1625 
L 2419 4116 
z
M 2253 4666 
L 3047 4666 
L 3047 1625 
L 3713 1625 
L 3713 1100 
L 3047 1100 
L 3047 0 
L 2419 0 
L 2419 1100 
L 313 1100 
L 313 1709 
L 2253 4666 
z
" transform="scale(0.015625)"/>
       </defs>
       <use xlink:href="#DejaVuSans-30"/>
       <use xlink:href="#DejaVuSans-30" transform="translate(63.623047 0)"/>
       <use xlink:href="#DejaVuSans-27" transform="translate(127.246094 0)"/>
       <use xlink:href="#DejaVuSans-34" transform="translate(154.736328 0)"/>
       <use xlink:href="#DejaVuSans-30" transform="translate(218.359375 0)"/>
       <use xlink:href="#DejaVuSans-22" transform="translate(281.982422 0)"/>
      </g>
     </g>
    </g>
    <g id="xtick_6">
     <g id="line2d_6">
      <g>
       <use xlink:href="#mb326f51050" x="400.082795" y="320.4" style="stroke: #000000; stroke-width: 0.8"/>
      </g>
     </g>
     <g id="text_6">
      <!-- 00'50" -->
      <g transform="translate(383.683576 334.998438) scale(0.1 -0.1)">
       <defs>
        <path id="DejaVuSans-35" d="M 691 4666 
L 3169 4666 
L 3169 4134 
L 1269 4134 
L 1269 2991 
Q 1406 3038 1543 3061 
Q 1681 3084 1819 3084 
Q 2600 3084 3056 2656 
Q 3513 2228 3513 1497 
Q 3513 744 3044 326 
Q 2575 -91 1722 -91 
Q 1428 -91 1123 -41 
Q 819 9 494 109 
L 494 744 
Q 775 591 1075 516 
Q 1375 441 1709 441 
Q 2250 441 2565 725 
Q 2881 1009 2881 1497 
Q 2881 1984 2565 2268 
Q 2250 2553 1709 2553 
Q 1456 2553 1204 2497 
Q 953 2441 691 2322 
L 691 4666 
z
" transform="scale(0.015625)"/>
       </defs>
       <use xlink:href="#DejaVuSans-30"/>
       <use xlink:href="#DejaVuSans-30" transform="translate(63.623047 0)"/>
       <use xlink:href="#DejaVuSans-27" transform="translate(127.246094 0)"/>
       <use xlink:href="#DejaVuSans-35" transform="translate(154.736328 0)"/>
       <use xlink:href="#DejaVuSans-30" transform="translate(218.359375 0)"/>
       <use xlink:href="#DejaVuSans-22" transform="translate(281.982422 0)"/>
      </g>
     </g>
    </g>
    <g id="xtick_7">
     <g id="line2d_7">
      <g>
       <use xlink:href="#mb326f51050" x="437.813824" y="320.4" style="stroke: #000000; stroke-width: 0.8"/>
      </g>
     </g>
     <g id="text_7">
      <!-- 01'00" -->
      <g transform="translate(421.414605 334.998438) scale(0.1 -0.1)">
       <use xlink:href="#DejaVuSans-30"/>
       <use xlink:href="#DejaVuSans-31" transform="translate(63.623047 0)"/>
       <use xlink:href="#DejaVuSans-27" transform="translate(127.246094 0)"/>
       <use xlink:href="#DejaVuSans-30" transform="translate(154.736328 0)"/>
       <use xlink:href="#DejaVuSans-30" transform="translate(218.359375 0)"/>
       <use xlink:href="#DejaVuSans-22" transform="translate(281.982422 0)"/>
      </g>
     </g>
    </g>
    <g id="xtick_8">
     <g id="line2d_8">
      <g>
       <use xlink:href="#mb326f51050" x="475.544853" y="320.4" style="stroke: #000000; stroke-width: 0.8"/>
      </g>
     </g>
     <g id="text_8">
      <!-- 01'10" -->
      <g transform="translate(459.145635 334.998438) scale(0.1 -0.1)">
       <use xlink:href="#DejaVuSans-30"/>
       <use xlink:href="#DejaVuSans-31" transform="translate(63.623047 0)"/>
       <use xlink:href="#DejaVuSans-27" transform="translate(127.246094 0)"/>
       <use xlink:href="#DejaVuSans-31" transform="translate(154.736328 0)"/>
       <use xlink:href="#DejaVuSans-30" transform="translate(218.359375 0)"/>
       <use xlink:href="#DejaVuSans-22" transform="translate(281.982422 0)"/>
      </g>
     </g>
    </g>
    <g id="xtick_9">
     <g id="line2d_9">
      <g>
       <use xlink:href="#mb326f51050" x="513.275883" y="320.4" style="stroke: #000000; stroke-width: 0.8"/>
      </g>
     </g>
     <g id="text_9">
      <!-- 01'20" -->
      <g transform="translate(496.876664 334.998438) scale(0.1 -0.1)">
       <use xlink:href="#DejaVuSans-30"/>
       <use xlink:href="#DejaVuSans-31" transform="translate(63.623047 0)"/>
       <use xlink:href="#DejaVuSans-27" transform="translate(127.246094 0)"/>
       <use xlink:href="#DejaVuSans-32" transform="translate(154.736328 0)"/>
       <use xlink:href="#DejaVuSans-30" transform="translate(218.359375 0)"/>
       <use xlink:href="#DejaVuSans-22" transform="translate(281.982422 0)"/>
      </g>
     </g>
    </g>
    <g id="xtick_10">
     <g id="line2d_10">
      <g>
       <use xlink:href="#mb326f51050" x="551.006912" y="320.4" style="stroke: #000000; stroke-width: 0.8"/>
      </g>
     </g>
     <g id="text_10">
      <!-- 01'30" -->
      <g transform="translate(534.607693 334.998438) scale(0.1 -0.1)">
       <use xlink:href="#DejaVuSans-30"/>
       <use xlink:href="#DejaVuSans-31" transform="translate(63.623047 0)"/>
       <use xlink:href="#DejaVuSans-27" transform="translate(127.246094 0)"/>
       <use xlink:href="#DejaVuSans-33" transform="translate(154.736328 0)"/>
       <use xlink:href="#DejaVuSans-30" transform="translate(218.359375 0)"/>
       <use xlink:href="#DejaVuSans-22" transform="translate(281.982422 0)"/>
      </g>
     </g>
    </g>
    <g id="xtick_11">
     <g id="line2d_11">
      <g>
       <use xlink:href="#mb326f51050" x="588.737941" y="320.4" style="stroke: #000000; stroke-width: 0.8"/>
      </g>
     </g>
     <g id="text_11">
      <!-- 01'40" -->
      <g transform="translate(572.338723 334.998438) scale(0.1 -0.1)">
       <use xlink:href="#DejaVuSans-30"/>
       <use xlink:href="#DejaVuSans-31" transform="translate(63.623047 0)"/>
       <use xlink:href="#DejaVuSans-27" transform="translate(127.246094 0)"/>
       <use xlink:href="#DejaVuSans-34" transform="translate(154.736328 0)"/>
       <use xlink:href="#DejaVuSans-30" transform="translate(218.359375 0)"/>
       <use xlink:href="#DejaVuSans-22" transform="translate(281.982422 0)"/>
      </g>
     </g>
    </g>
    <g id="xtick_12">
     <g id="line2d_12">
      <g>
       <use xlink:href="#mb326f51050" x="626.468971" y="320.4" style="stroke: #000000; stroke-width: 0.8"/>
      </g>
     </g>
     <g id="text_12">
      <!-- 01'50" -->
      <g transform="translate(610.069752 334.998438) scale(0.1 -0.1)">
       <use xlink:href="#DejaVuSans-30"/>
       <use xlink:href="#DejaVuSans-31" transform="translate(63.623047 0)"/>
       <use xlink:href="#DejaVuSans-27" transform="translate(127.246094 0)"/>
       <use xlink:href="#DejaVuSans-35" transform="translate(154.736328 0)"/>
       <use xlink:href="#DejaVuSans-30" transform="translate(218.359375 0)"/>
       <use xlink:href="#DejaVuSans-22" transform="translate(281.982422 0)"/>
      </g>
     </g>
    </g>
    <g id="xtick_13">
     <g id="line2d_13">
      <g>
       <use xlink:href="#mb326f51050" x="664.2" y="320.4" style="stroke: #000000; stroke-width: 0.8"/>
      </g>
     </g>
     <g id="text_13">
      <!-- 02'00" -->
      <g transform="translate(647.800781 334.998438) scale(0.1 -0.1)">
       <use xlink:href="#DejaVuSans-30"/>
       <use xlink:href="#DejaVuSans-32" transform="translate(63.623047 0)"/>
       <use xlink:href="#DejaVuSans-27" transform="translate(127.246094 0)"/>
       <use xlink:href="#DejaVuSans-30" transform="translate(154.736328 0)"/>
       <use xlink:href="#DejaVuSans-30" transform="translate(218.359375 0)"/>
       <use xlink:href="#DejaVuSans-22" transform="translate(281.982422 0)"/>
      </g>
     </g>
    </g>
    <g id="xtick_14">
     <g id="line2d_14">
      <g>
       <use xlink:href="#mb326f51050" x="701.931029" y="320.4" style="stroke: #000000; stroke-width: 0.8"/>
      </g>
     </g>
     <g id="text_14">
      <!-- 02'10" -->
      <g transform="translate(685.531811 334.998438) scale(0.1 -0.1)">
       <use xlink:href="#DejaVuSans-30"/>
       <use xlink:href="#DejaVuSans-32" transform="translate(63.623047 0)"/>
       <use xlink:href="#DejaVuSans-27" transform="translate(127.246094 0)"/>
       <use xlink:href="#DejaVuSans-31" transform="translate(154.736328 0)"/>
       <use xlink:href="#DejaVuSans-30" transform="translate(218.359375 0)"/>
       <use xlink:href="#DejaVuSans-22" transform="translate(281.982422 0)"/>
      </g>
     </g>
    </g>
    <g id="xtick_15">
     <g id="line2d_15">
      <g>
       <use xlink:href="#mb326f51050" x="739.662059" y="320.4" style="stroke: #000000; stroke-width: 0.8"/>
      </g>
     </g>
     <g id="text_15">
      <!-- 02'20" -->
      <g transform="translate(723.26284 334.998438) scale(0.1 -0.1)">
       <use xlink:href="#DejaVuSans-30"/>
       <use xlink:href="#DejaVuSans-32" transform="translate(63.623047 0)"/>
       <use xlink:href="#DejaVuSans-27" transform="translate(127.246094 0)"/>
       <use xlink:href="#DejaVuSans-32" transform="translate(154.736328 0)"/>
       <use xlink:href="#DejaVuSans-30" transform="translate(218.359375 0)"/>
       <use xlink:href="#DejaVuSans-22" transform="translate(281.982422 0)"/>
      </g>
     </g>
    </g>
    <g id="xtick_16">
     <g id="line2d_16">
      <g>
       <use xlink:href="#mb326f51050" x="777.393088" y="320.4" style="stroke: #000000; stroke-width: 0.8"/>
      </g>
     </g>
     <g id="text_16">
      <!-- 02'30" -->
      <g transform="translate(760.993869 334.998438) scale(0.1 -0.1)">
       <use xlink:href="#DejaVuSans-30"/>
       <use xlink:href="#DejaVuSans-32" transform="translate(63.623047 0)"/>
       <use xlink:href="#DejaVuSans-27" transform="translate(127.246094 0)"/>
       <use xlink:href="#DejaVuSans-33" transform="translate(154.736328 0)"/>
       <use xlink:href="#DejaVuSans-30" transform="translate(218.359375 0)"/>
       <use xlink:href="#DejaVuSans-22" transform="translate(281.982422 0)"/>
      </g>
     </g>
    </g>
    <g id="xtick_17">
     <g id="line2d_17">
      <g>
       <use xlink:href="#mb326f51050" x="815.124117" y="320.4" style="stroke: #000000; stroke-width: 0.8"/>
      </g>
     </g>
     <g id="text_17">
      <!-- 02'40" -->
      <g transform="translate(798.724898 334.998438) scale(0.1 -0.1)">
       <use xlink:href="#DejaVuSans-30"/>
       <use xlink:href="#DejaVuSans-32" transform="translate(63.623047 0)"/>
       <use xlink:href="#DejaVuSans-27" transform="translate(127.246094 0)"/>
       <use xlink:href="#DejaVuSans-34" transform="translate(154.736328 0)"/>
       <use xlink:href="#DejaVuSans-30" transform="translate(218.359375 0)"/>
       <use xlink:href="#DejaVuSans-22" transform="translate(281.982422 0)"/>
      </g>
     </g>
    </g>
    <g id="xtick_18">
     <g id="line2d_18">
      <g>
       <use xlink:href="#mb326f51050" x="852.855147" y="320.4" style="stroke: #000000; stroke-width: 0.8"/>
      </g>
     </g>
     <g id="text_18">
      <!-- 02'50" -->
      <g transform="translate(836.455928 334.998438) scale(0.1 -0.1)">
       <use xlink:href="#DejaVuSans-30"/>
       <use xlink:href="#DejaVuSans-32" transform="translate(63.623047 0)"/>
       <use xlink:href="#DejaVuSans-27" transform="translate(127.246094 0)"/>
       <use xlink:href="#DejaVuSans-35" transform="translate(154.736328 0)"/>
       <use xlink:href="#DejaVuSans-30" transform="translate(218.359375 0)"/>
       <use xlink:href="#DejaVuSans-22" transform="translate(281.982422 0)"/>
      </g>
     </g>
    </g>
    <g id="xtick_19">
     <g id="line2d_19">
      <g>
       <use xlink:href="#mb326f51050" x="890.586176" y="320.4" style="stroke: #000000; stroke-width: 0.8"/>
      </g>
     </g>
     <g id="text_19">
      <!-- 03'00" -->
      <g transform="translate(874.186957 334.998438) scale(0.1 -0.1)">
       <use xlink:href="#DejaVuSans-30"/>
       <use xlink:href="#DejaVuSans-33" transform="translate(63.623047 0)"/>
       <use xlink:href="#DejaVuSans-27" transform="translate(127.246094 0)"/>
       <use xlink:href="#DejaVuSans-30" transform="translate(154.736328 0)"/>
       <use xlink:href="#DejaVuSans-30" transform="translate(218.359375 0)"/>
       <use xlink:href="#DejaVuSans-22" transform="translate(281.982422 0)"/>
      </g>
     </g>
    </g>
    <g id="xtick_20">
     <g id="line2d_20">
      <g>
       <use xlink:href="#mb326f51050" x="928.317205" y="320.4" style="stroke: #000000; stroke-width: 0.8"/>
      </g>
     </g>
     <g id="text_20">
      <!-- 03'10" -->
      <g transform="translate(911.917986 334.998438) scale(0.1 -0.1)">
       <use xlink:href="#DejaVuSans-30"/>
       <use xlink:href="#DejaVuSans-33" transform="translate(63.623047 0)"/>
       <use xlink:href="#DejaVuSans-27" transform="translate(127.246094 0)"/>
       <use xlink:href="#DejaVuSans-31" transform="translate(154.736328 0)"/>
       <use xlink:href="#DejaVuSans-30" transform="translate(218.359375 0)"/>
       <use xlink:href="#DejaVuSans-22" transform="translate(281.982422 0)"/>
      </g>
     </g>
    </g>
    <g id="xtick_21">
     <g id="line2d_21">
      <g>
       <use xlink:href="#mb326f51050" x="966.048234" y="320.4" style="stroke: #000000; stroke-width: 0.8"/>
      </g>
     </g>
     <g id="text_21">
      <!-- 03'20" -->
      <g transform="translate(949.649016 334.998438) scale(0.1 -0.1)">
       <use xlink:href="#DejaVuSans-30"/>
       <use xlink:href="#DejaVuSans-33" transform="translate(63.623047 0)"/>
       <use xlink:href="#DejaVuSans-27" transform="translate(127.246094 0)"/>
       <use xlink:href="#DejaVuSans-32" transform="translate(154.736328 0)"/>
       <use xlink:href="#DejaVuSans-30" transform="translate(218.359375 0)"/>
       <use xlink:href="#DejaVuSans-22" transform="translate(281.982422 0)"/>
      </g>
     </g>
    </g>
    <g id="xtick_22">
     <g id="line2d_22">
      <g>
       <use xlink:href="#mb326f51050" x="1003.779264" y="320.4" style="stroke: #000000; stroke-width: 0.8"/>
      </g>
     </g>
     <g id="text_22">
      <!-- 03'30" -->
      <g transform="translate(987.380045 334.998438) scale(0.1 -0.1)">
       <use xlink:href="#DejaVuSans-30"/>
       <use xlink:href="#DejaVuSans-33" transform="translate(63.623047 0)"/>
       <use xlink:href="#DejaVuSans-27" transform="translate(127.246094 0)"/>
       <use xlink:href="#DejaVuSans-33" transform="translate(154.736328 0)"/>
       <use xlink:href="#DejaVuSans-30" transform="translate(218.359375 0)"/>
       <use xlink:href="#DejaVuSans-22" transform="translate(281.982422 0)"/>
      </g>
     </g>
    </g>
    <g id="xtick_23">
     <g id="line2d_23">
      <g>
       <use xlink:href="#mb326f51050" x="1041.510293" y="320.4" style="stroke: #000000; stroke-width: 0.8"/>
      </g>
     </g>
     <g id="text_23">
      <!-- 03'40" -->
      <g transform="translate(1025.111074 334.998438) scale(0.1 -0.1)">
       <use xlink:href="#DejaVuSans-30"/>
       <use xlink:href="#DejaVuSans-33" transform="translate(63.623047 0)"/>
       <use xlink:href="#DejaVuSans-27" transform="translate(127.246094 0)"/>
       <use xlink:href="#DejaVuSans-34" transform="translate(154.736328 0)"/>
       <use xlink:href="#DejaVuSans-30" transform="translate(218.359375 0)"/>
       <use xlink:href="#DejaVuSans-22" transform="translate(281.982422 0)"/>
      </g>
     </g>
    </g>
    <g id="xtick_24">
     <g id="line2d_24">
      <g>
       <use xlink:href="#mb326f51050" x="1079.241322" y="320.4" style="stroke: #000000; stroke-width: 0.8"/>
      </g>
     </g>
     <g id="text_24">
      <!-- 03'50" -->
      <g transform="translate(1062.842104 334.998438) scale(0.1 -0.1)">
       <use xlink:href="#DejaVuSans-30"/>
       <use xlink:href="#DejaVuSans-33" transform="translate(63.623047 0)"/>
       <use xlink:href="#DejaVuSans-27" transform="translate(127.246094 0)"/>
       <use xlink:href="#DejaVuSans-35" transform="translate(154.736328 0)"/>
       <use xlink:href="#DejaVuSans-30" transform="translate(218.359375 0)"/>
       <use xlink:href="#DejaVuSans-22" transform="translate(281.982422 0)"/>
      </g>
     </g>
    </g>
    <g id="text_25">
     <!-- Timeline -->
     <g transform="translate(642.942969 348.676562) scale(0.1 -0.1)">
      <defs>
       <path id="DejaVuSans-54" d="M -19 4666 
L 3928 4666 
L 3928 4134 
L 2272 4134 
L 2272 0 
L 1638 0 
L 1638 4134 
L -19 4134 
L -19 4666 
z
" transform="scale(0.015625)"/>
       <path id="DejaVuSans-69" d="M 603 3500 
L 1178 3500 
L 1178 0 
L 603 0 
L 603 3500 
z
M 603 4863 
L 1178 4863 
L 1178 4134 
L 603 4134 
L 603 4863 
z
" transform="scale(0.015625)"/>
       <path id="DejaVuSans-6d" d="M 3328 2828 
Q 3544 3216 3844 3400 
Q 4144 3584 4550 3584 
Q 5097 3584 5394 3201 
Q 5691 2819 5691 2113 
L 5691 0 
L 5113 0 
L 5113 2094 
Q 5113 2597 4934 2840 
Q 4756 3084 4391 3084 
Q 3944 3084 3684 2787 
Q 3425 2491 3425 1978 
L 3425 0 
L 2847 0 
L 2847 2094 
Q 2847 2600 2669 2842 
Q 2491 3084 2119 3084 
Q 1678 3084 1418 2786 
Q 1159 2488 1159 1978 
L 1159 0 
L 581 0 
L 581 3500 
L 1159 3500 
L 1159 2956 
Q 1356 3278 1631 3431 
Q 1906 3584 2284 3584 
Q 2666 3584 2933 3390 
Q 3200 3197 3328 2828 
z
" transform="scale(0.015625)"/>
       <path id="DejaVuSans-65" d="M 3597 1894 
L 3597 1613 
L 953 1613 
Q 991 1019 1311 708 
Q 1631 397 2203 397 
Q 2534 397 2845 478 
Q 3156 559 3463 722 
L 3463 178 
Q 3153 47 2828 -22 
Q 2503 -91 2169 -91 
Q 1331 -91 842 396 
Q 353 884 353 1716 
Q 353 2575 817 3079 
Q 1281 3584 2069 3584 
Q 2775 3584 3186 3129 
Q 3597 2675 3597 1894 
z
M 3022 2063 
Q 3016 2534 2758 2815 
Q 2500 3097 2075 3097 
Q 1594 3097 1305 2825 
Q 1016 2553 972 2059 
L 3022 2063 
z
" transform="scale(0.015625)"/>
       <path id="DejaVuSans-6c" d="M 603 4863 
L 1178 4863 
L 1178 0 
L 603 0 
L 603 4863 
z
" transform="scale(0.015625)"/>
       <path id="DejaVuSans-6e" d="M 3513 2113 
L 3513 0 
L 2938 0 
L 2938 2094 
Q 2938 2591 2744 2837 
Q 2550 3084 2163 3084 
Q 1697 3084 1428 2787 
Q 1159 2491 1159 1978 
L 1159 0 
L 581 0 
L 581 3500 
L 1159 3500 
L 1159 2956 
Q 1366 3272 1645 3428 
Q 1925 3584 2291 3584 
Q 2894 3584 3203 3211 
Q 3513 2838 3513 2113 
z
" transform="scale(0.015625)"/>
      </defs>
      <use xlink:href="#DejaVuSans-54"/>
      <use xlink:href="#DejaVuSans-69" transform="translate(57.958984 0)"/>
      <use xlink:href="#DejaVuSans-6d" transform="translate(85.742188 0)"/>
      <use xlink:href="#DejaVuSans-65" transform="translate(183.154297 0)"/>
      <use xlink:href="#DejaVuSans-6c" transform="translate(244.677734 0)"/>
      <use xlink:href="#DejaVuSans-69" transform="translate(272.460938 0)"/>
      <use xlink:href="#DejaVuSans-6e" transform="translate(300.244141 0)"/>
      <use xlink:href="#DejaVuSans-65" transform="translate(363.623047 0)"/>
     </g>
    </g>
   </g>
   <g id="matplotlib.axis_2">
    <g id="ytick_1">
     <g id="line2d_25">
      <defs>
       <path id="me0900f45ad" d="M 0 0 
L -3.5 0 
" style="stroke: #000000; stroke-width: 0.8"/>
      </defs>
      <g>
       <use xlink:href="#me0900f45ad" x="162" y="320.4" style="stroke: #000000; stroke-width: 0.8"/>
      </g>
     </g>
     <g id="text_26">
      <!-- 40 -->
      <g transform="translate(142.275 324.199219) scale(0.1 -0.1)">
       <use xlink:href="#DejaVuSans-34"/>
       <use xlink:href="#DejaVuSans-30" transform="translate(63.623047 0)"/>
      </g>
     </g>
    </g>
    <g id="ytick_2">
     <g id="line2d_26">
      <g>
       <use xlink:href="#me0900f45ad" x="162" y="289.6" style="stroke: #000000; stroke-width: 0.8"/>
      </g>
     </g>
     <g id="text_27">
      <!-- 45 -->
      <g transform="translate(142.275 293.399219) scale(0.1 -0.1)">
       <use xlink:href="#DejaVuSans-34"/>
       <use xlink:href="#DejaVuSans-35" transform="translate(63.623047 0)"/>
      </g>
     </g>
    </g>
    <g id="ytick_3">
     <g id="line2d_27">
      <g>
       <use xlink:href="#me0900f45ad" x="162" y="258.8" style="stroke: #000000; stroke-width: 0.8"/>
      </g>
     </g>
     <g id="text_28">
      <!-- 50 -->
      <g transform="translate(142.275 262.599219) scale(0.1 -0.1)">
       <use xlink:href="#DejaVuSans-35"/>
       <use xlink:href="#DejaVuSans-30" transform="translate(63.623047 0)"/>
      </g>
     </g>
    </g>
    <g id="ytick_4">
     <g id="line2d_28">
      <g>
       <use xlink:href="#me0900f45ad" x="162" y="228" style="stroke: #000000; stroke-width: 0.8"/>
      </g>
     </g>
     <g id="text_29">
      <!-- 55 -->
      <g transform="translate(142.275 231.799219) scale(0.1 -0.1)">
       <use xlink:href="#DejaVuSans-35"/>
       <use xlink:href="#DejaVuSans-35" transform="translate(63.623047 0)"/>
      </g>
     </g>
    </g>
    <g id="ytick_5">
     <g id="line2d_29">
      <g>
       <use xlink:href="#me0900f45ad" x="162" y="197.2" style="stroke: #000000; stroke-width: 0.8"/>
      </g>
     </g>
     <g id="text_30">
      <!-- 60 -->
      <g transform="translate(142.275 200.999219) scale(0.1 -0.1)">
       <defs>
        <path id="DejaVuSans-36" d="M 2113 2584 
Q 1688 2584 1439 2293 
Q 1191 2003 1191 1497 
Q 1191 994 1439 701 
Q 1688 409 2113 409 
Q 2538 409 2786 701 
Q 3034 994 3034 1497 
Q 3034 2003 2786 2293 
Q 2538 2584 2113 2584 
z
M 3366 4563 
L 3366 3988 
Q 3128 4100 2886 4159 
Q 2644 4219 2406 4219 
Q 1781 4219 1451 3797 
Q 1122 3375 1075 2522 
Q 1259 2794 1537 2939 
Q 1816 3084 2150 3084 
Q 2853 3084 3261 2657 
Q 3669 2231 3669 1497 
Q 3669 778 3244 343 
Q 2819 -91 2113 -91 
Q 1303 -91 875 529 
Q 447 1150 447 2328 
Q 447 3434 972 4092 
Q 1497 4750 2381 4750 
Q 2619 4750 2861 4703 
Q 3103 4656 3366 4563 
z
" transform="scale(0.015625)"/>
       </defs>
       <use xlink:href="#DejaVuSans-36"/>
       <use xlink:href="#DejaVuSans-30" transform="translate(63.623047 0)"/>
      </g>
     </g>
    </g>
    <g id="ytick_6">
     <g id="line2d_30">
      <g>
       <use xlink:href="#me0900f45ad" x="162" y="166.4" style="stroke: #000000; stroke-width: 0.8"/>
      </g>
     </g>
     <g id="text_31">
      <!-- 65 -->
      <g transform="translate(142.275 170.199219) scale(0.1 -0.1)">
       <use xlink:href="#DejaVuSans-36"/>
       <use xlink:href="#DejaVuSans-35" transform="translate(63.623047 0)"/>
      </g>
     </g>
    </g>
    <g id="ytick_7">
     <g id="line2d_31">
      <g>
       <use xlink:href="#me0900f45ad" x="162" y="135.6" style="stroke: #000000; stroke-width: 0.8"/>
      </g>
     </g>
     <g id="text_32">
      <!-- 70 -->
      <g transform="translate(142.275 139.399219) scale(0.1 -0.1)">
       <defs>
        <path id="DejaVuSans-37" d="M 525 4666 
L 3525 4666 
L 3525 4397 
L 1831 0 
L 1172 0 
L 2766 4134 
L 525 4134 
L 525 4666 
z
" transform="scale(0.015625)"/>
       </defs>
       <use xlink:href="#DejaVuSans-37"/>
       <use xlink:href="#DejaVuSans-30" transform="translate(63.623047 0)"/>
      </g>
     </g>
    </g>
    <g id="ytick_8">
     <g id="line2d_32">
      <g>
       <use xlink:href="#me0900f45ad" x="162" y="104.8" style="stroke: #000000; stroke-width: 0.8"/>
      </g>
     </g>
     <g id="text_33">
      <!-- 75 -->
      <g transform="translate(142.275 108.599219) scale(0.1 -0.1)">
       <use xlink:href="#DejaVuSans-37"/>
       <use xlink:href="#DejaVuSans-35" transform="translate(63.623047 0)"/>
      </g>
     </g>
    </g>
    <g id="ytick_9">
     <g id="line2d_33">
      <g>
       <use xlink:href="#me0900f45ad" x="162" y="74" style="stroke: #000000; stroke-width: 0.8"/>
      </g>
     </g>
     <g id="text_34">
      <!-- 80 -->
      <g transform="translate(142.275 77.799219) scale(0.1 -0.1)">
       <defs>
        <path id="DejaVuSans-38" d="M 2034 2216 
Q 1584 2216 1326 1975 
Q 1069 1734 1069 1313 
Q 1069 891 1326 650 
Q 1584 409 2034 409 
Q 2484 409 2743 651 
Q 3003 894 3003 1313 
Q 3003 1734 2745 1975 
Q 2488 2216 2034 2216 
z
M 1403 2484 
Q 997 2584 770 2862 
Q 544 3141 544 3541 
Q 544 4100 942 4425 
Q 1341 4750 2034 4750 
Q 2731 4750 3128 4425 
Q 3525 4100 3525 3541 
Q 3525 3141 3298 2862 
Q 3072 2584 2669 2484 
Q 3125 2378 3379 2068 
Q 3634 1759 3634 1313 
Q 3634 634 3220 271 
Q 2806 -91 2034 -91 
Q 1263 -91 848 271 
Q 434 634 434 1313 
Q 434 1759 690 2068 
Q 947 2378 1403 2484 
z
M 1172 3481 
Q 1172 3119 1398 2916 
Q 1625 2713 2034 2713 
Q 2441 2713 2670 2916 
Q 2900 3119 2900 3481 
Q 2900 3844 2670 4047 
Q 2441 4250 2034 4250 
Q 1625 4250 1398 4047 
Q 1172 3844 1172 3481 
z
" transform="scale(0.015625)"/>
       </defs>
       <use xlink:href="#DejaVuSans-38"/>
       <use xlink:href="#DejaVuSans-30" transform="translate(63.623047 0)"/>
      </g>
     </g>
    </g>
    <g id="ytick_10">
     <g id="line2d_34">
      <g>
       <use xlink:href="#me0900f45ad" x="162" y="43.2" style="stroke: #000000; stroke-width: 0.8"/>
      </g>
     </g>
     <g id="text_35">
      <!-- 85 -->
      <g transform="translate(142.275 46.999219) scale(0.1 -0.1)">
       <use xlink:href="#DejaVuSans-38"/>
       <use xlink:href="#DejaVuSans-35" transform="translate(63.623047 0)"/>
      </g>
     </g>
    </g>
    <g id="text_36">
     <!-- KBytes generated -->
     <g transform="translate(136.195312 226.525781) rotate(-90) scale(0.1 -0.1)">
      <defs>
       <path id="DejaVuSans-4b" d="M 628 4666 
L 1259 4666 
L 1259 2694 
L 3353 4666 
L 4166 4666 
L 1850 2491 
L 4331 0 
L 3500 0 
L 1259 2247 
L 1259 0 
L 628 0 
L 628 4666 
z
" transform="scale(0.015625)"/>
       <path id="DejaVuSans-42" d="M 1259 2228 
L 1259 519 
L 2272 519 
Q 2781 519 3026 730 
Q 3272 941 3272 1375 
Q 3272 1813 3026 2020 
Q 2781 2228 2272 2228 
L 1259 2228 
z
M 1259 4147 
L 1259 2741 
L 2194 2741 
Q 2656 2741 2882 2914 
Q 3109 3088 3109 3444 
Q 3109 3797 2882 3972 
Q 2656 4147 2194 4147 
L 1259 4147 
z
M 628 4666 
L 2241 4666 
Q 2963 4666 3353 4366 
Q 3744 4066 3744 3513 
Q 3744 3084 3544 2831 
Q 3344 2578 2956 2516 
Q 3422 2416 3680 2098 
Q 3938 1781 3938 1306 
Q 3938 681 3513 340 
Q 3088 0 2303 0 
L 628 0 
L 628 4666 
z
" transform="scale(0.015625)"/>
       <path id="DejaVuSans-79" d="M 2059 -325 
Q 1816 -950 1584 -1140 
Q 1353 -1331 966 -1331 
L 506 -1331 
L 506 -850 
L 844 -850 
Q 1081 -850 1212 -737 
Q 1344 -625 1503 -206 
L 1606 56 
L 191 3500 
L 800 3500 
L 1894 763 
L 2988 3500 
L 3597 3500 
L 2059 -325 
z
" transform="scale(0.015625)"/>
       <path id="DejaVuSans-74" d="M 1172 4494 
L 1172 3500 
L 2356 3500 
L 2356 3053 
L 1172 3053 
L 1172 1153 
Q 1172 725 1289 603 
Q 1406 481 1766 481 
L 2356 481 
L 2356 0 
L 1766 0 
Q 1100 0 847 248 
Q 594 497 594 1153 
L 594 3053 
L 172 3053 
L 172 3500 
L 594 3500 
L 594 4494 
L 1172 4494 
z
" transform="scale(0.015625)"/>
       <path id="DejaVuSans-73" d="M 2834 3397 
L 2834 2853 
Q 2591 2978 2328 3040 
Q 2066 3103 1784 3103 
Q 1356 3103 1142 2972 
Q 928 2841 928 2578 
Q 928 2378 1081 2264 
Q 1234 2150 1697 2047 
L 1894 2003 
Q 2506 1872 2764 1633 
Q 3022 1394 3022 966 
Q 3022 478 2636 193 
Q 2250 -91 1575 -91 
Q 1294 -91 989 -36 
Q 684 19 347 128 
L 347 722 
Q 666 556 975 473 
Q 1284 391 1588 391 
Q 1994 391 2212 530 
Q 2431 669 2431 922 
Q 2431 1156 2273 1281 
Q 2116 1406 1581 1522 
L 1381 1569 
Q 847 1681 609 1914 
Q 372 2147 372 2553 
Q 372 3047 722 3315 
Q 1072 3584 1716 3584 
Q 2034 3584 2315 3537 
Q 2597 3491 2834 3397 
z
" transform="scale(0.015625)"/>
       <path id="DejaVuSans-20" transform="scale(0.015625)"/>
       <path id="DejaVuSans-67" d="M 2906 1791 
Q 2906 2416 2648 2759 
Q 2391 3103 1925 3103 
Q 1463 3103 1205 2759 
Q 947 2416 947 1791 
Q 947 1169 1205 825 
Q 1463 481 1925 481 
Q 2391 481 2648 825 
Q 2906 1169 2906 1791 
z
M 3481 434 
Q 3481 -459 3084 -895 
Q 2688 -1331 1869 -1331 
Q 1566 -1331 1297 -1286 
Q 1028 -1241 775 -1147 
L 775 -588 
Q 1028 -725 1275 -790 
Q 1522 -856 1778 -856 
Q 2344 -856 2625 -561 
Q 2906 -266 2906 331 
L 2906 616 
Q 2728 306 2450 153 
Q 2172 0 1784 0 
Q 1141 0 747 490 
Q 353 981 353 1791 
Q 353 2603 747 3093 
Q 1141 3584 1784 3584 
Q 2172 3584 2450 3431 
Q 2728 3278 2906 2969 
L 2906 3500 
L 3481 3500 
L 3481 434 
z
" transform="scale(0.015625)"/>
       <path id="DejaVuSans-72" d="M 2631 2963 
Q 2534 3019 2420 3045 
Q 2306 3072 2169 3072 
Q 1681 3072 1420 2755 
Q 1159 2438 1159 1844 
L 1159 0 
L 581 0 
L 581 3500 
L 1159 3500 
L 1159 2956 
Q 1341 3275 1631 3429 
Q 1922 3584 2338 3584 
Q 2397 3584 2469 3576 
Q 2541 3569 2628 3553 
L 2631 2963 
z
" transform="scale(0.015625)"/>
       <path id="DejaVuSans-61" d="M 2194 1759 
Q 1497 1759 1228 1600 
Q 959 1441 959 1056 
Q 959 750 1161 570 
Q 1363 391 1709 391 
Q 2188 391 2477 730 
Q 2766 1069 2766 1631 
L 2766 1759 
L 2194 1759 
z
M 3341 1997 
L 3341 0 
L 2766 0 
L 2766 531 
Q 2569 213 2275 61 
Q 1981 -91 1556 -91 
Q 1019 -91 701 211 
Q 384 513 384 1019 
Q 384 1609 779 1909 
Q 1175 2209 1959 2209 
L 2766 2209 
L 2766 2266 
Q 2766 2663 2505 2880 
Q 2244 3097 1772 3097 
Q 1472 3097 1187 3025 
Q 903 2953 641 2809 
L 641 3341 
Q 956 3463 1253 3523 
Q 1550 3584 1831 3584 
Q 2591 3584 2966 3190 
Q 3341 2797 3341 1997 
z
" transform="scale(0.015625)"/>
       <path id="DejaVuSans-64" d="M 2906 2969 
L 2906 4863 
L 3481 4863 
L 3481 0 
L 2906 0 
L 2906 525 
Q 2725 213 2448 61 
Q 2172 -91 1784 -91 
Q 1150 -91 751 415 
Q 353 922 353 1747 
Q 353 2572 751 3078 
Q 1150 3584 1784 3584 
Q 2172 3584 2448 3432 
Q 2725 3281 2906 2969 
z
M 947 1747 
Q 947 1113 1208 752 
Q 1469 391 1925 391 
Q 2381 391 2643 752 
Q 2906 1113 2906 1747 
Q 2906 2381 2643 2742 
Q 2381 3103 1925 3103 
Q 1469 3103 1208 2742 
Q 947 2381 947 1747 
z
" transform="scale(0.015625)"/>
      </defs>
      <use xlink:href="#DejaVuSans-4b"/>
      <use xlink:href="#DejaVuSans-42" transform="translate(65.576172 0)"/>
      <use xlink:href="#DejaVuSans-79" transform="translate(134.179688 0)"/>
      <use xlink:href="#DejaVuSans-74" transform="translate(193.359375 0)"/>
      <use xlink:href="#DejaVuSans-65" transform="translate(232.568359 0)"/>
      <use xlink:href="#DejaVuSans-73" transform="translate(294.091797 0)"/>
      <use xlink:href="#DejaVuSans-20" transform="translate(346.191406 0)"/>
      <use xlink:href="#DejaVuSans-67" transform="translate(377.978516 0)"/>
      <use xlink:href="#DejaVuSans-65" transform="translate(441.455078 0)"/>
      <use xlink:href="#DejaVuSans-6e" transform="translate(502.978516 0)"/>
      <use xlink:href="#DejaVuSans-65" transform="translate(566.357422 0)"/>
      <use xlink:href="#DejaVuSans-72" transform="translate(627.880859 0)"/>
      <use xlink:href="#DejaVuSans-61" transform="translate(668.994141 0)"/>
      <use xlink:href="#DejaVuSans-74" transform="translate(730.273438 0)"/>
      <use xlink:href="#DejaVuSans-65" transform="translate(769.482422 0)"/>
      <use xlink:href="#DejaVuSans-64" transform="translate(831.005859 0)"/>
     </g>
    </g>
   </g>
   <g id="patch_242">
    <path d="M 162 320.4 
L 162 43.2 
" style="fill: none; stroke: #000000; stroke-width: 0.8; stroke-linejoin: miter; stroke-linecap: square"/>
   </g>
   <g id="patch_243">
    <path d="M 1166.4 320.4 
L 1166.4 43.2 
" style="fill: none; stroke: #000000; stroke-width: 0.8; stroke-linejoin: miter; stroke-linecap: square"/>
   </g>
   <g id="patch_244">
    <path d="M 162 320.4 
L 1166.4 320.4 
" style="fill: none; stroke: #000000; stroke-width: 0.8; stroke-linejoin: miter; stroke-linecap: square"/>
   </g>
   <g id="patch_245">
    <path d="M 162 43.2 
L 1166.4 43.2 
" style="fill: none; stroke: #000000; stroke-width: 0.8; stroke-linejoin: miter; stroke-linecap: square"/>
   </g>
  </g>
  <g id="text_37">
   <!-- Street images stream excerpt shape -->
   <g transform="translate(538.54875 16.318125) scale(0.12 -0.12)">
    <defs>
     <path id="DejaVuSans-53" d="M 3425 4513 
L 3425 3897 
Q 3066 4069 2747 4153 
Q 2428 4238 2131 4238 
Q 1616 4238 1336 4038 
Q 1056 3838 1056 3469 
Q 1056 3159 1242 3001 
Q 1428 2844 1947 2747 
L 2328 2669 
Q 3034 2534 3370 2195 
Q 3706 1856 3706 1288 
Q 3706 609 3251 259 
Q 2797 -91 1919 -91 
Q 1588 -91 1214 -16 
Q 841 59 441 206 
L 441 856 
Q 825 641 1194 531 
Q 1563 422 1919 422 
Q 2459 422 2753 634 
Q 3047 847 3047 1241 
Q 3047 1584 2836 1778 
Q 2625 1972 2144 2069 
L 1759 2144 
Q 1053 2284 737 2584 
Q 422 2884 422 3419 
Q 422 4038 858 4394 
Q 1294 4750 2059 4750 
Q 2388 4750 2728 4690 
Q 3069 4631 3425 4513 
z
" transform="scale(0.015625)"/>
     <path id="DejaVuSans-78" d="M 3513 3500 
L 2247 1797 
L 3578 0 
L 2900 0 
L 1881 1375 
L 863 0 
L 184 0 
L 1544 1831 
L 300 3500 
L 978 3500 
L 1906 2253 
L 2834 3500 
L 3513 3500 
z
" transform="scale(0.015625)"/>
     <path id="DejaVuSans-63" d="M 3122 3366 
L 3122 2828 
Q 2878 2963 2633 3030 
Q 2388 3097 2138 3097 
Q 1578 3097 1268 2742 
Q 959 2388 959 1747 
Q 959 1106 1268 751 
Q 1578 397 2138 397 
Q 2388 397 2633 464 
Q 2878 531 3122 666 
L 3122 134 
Q 2881 22 2623 -34 
Q 2366 -91 2075 -91 
Q 1284 -91 818 406 
Q 353 903 353 1747 
Q 353 2603 823 3093 
Q 1294 3584 2113 3584 
Q 2378 3584 2631 3529 
Q 2884 3475 3122 3366 
z
" transform="scale(0.015625)"/>
     <path id="DejaVuSans-70" d="M 1159 525 
L 1159 -1331 
L 581 -1331 
L 581 3500 
L 1159 3500 
L 1159 2969 
Q 1341 3281 1617 3432 
Q 1894 3584 2278 3584 
Q 2916 3584 3314 3078 
Q 3713 2572 3713 1747 
Q 3713 922 3314 415 
Q 2916 -91 2278 -91 
Q 1894 -91 1617 61 
Q 1341 213 1159 525 
z
M 3116 1747 
Q 3116 2381 2855 2742 
Q 2594 3103 2138 3103 
Q 1681 3103 1420 2742 
Q 1159 2381 1159 1747 
Q 1159 1113 1420 752 
Q 1681 391 2138 391 
Q 2594 391 2855 752 
Q 3116 1113 3116 1747 
z
" transform="scale(0.015625)"/>
     <path id="DejaVuSans-68" d="M 3513 2113 
L 3513 0 
L 2938 0 
L 2938 2094 
Q 2938 2591 2744 2837 
Q 2550 3084 2163 3084 
Q 1697 3084 1428 2787 
Q 1159 2491 1159 1978 
L 1159 0 
L 581 0 
L 581 4863 
L 1159 4863 
L 1159 2956 
Q 1366 3272 1645 3428 
Q 1925 3584 2291 3584 
Q 2894 3584 3203 3211 
Q 3513 2838 3513 2113 
z
" transform="scale(0.015625)"/>
    </defs>
    <use xlink:href="#DejaVuSans-53"/>
    <use xlink:href="#DejaVuSans-74" transform="translate(63.476562 0)"/>
    <use xlink:href="#DejaVuSans-72" transform="translate(102.685547 0)"/>
    <use xlink:href="#DejaVuSans-65" transform="translate(141.548828 0)"/>
    <use xlink:href="#DejaVuSans-65" transform="translate(203.072266 0)"/>
    <use xlink:href="#DejaVuSans-74" transform="translate(264.595703 0)"/>
    <use xlink:href="#DejaVuSans-20" transform="translate(303.804688 0)"/>
    <use xlink:href="#DejaVuSans-69" transform="translate(335.591797 0)"/>
    <use xlink:href="#DejaVuSans-6d" transform="translate(363.375 0)"/>
    <use xlink:href="#DejaVuSans-61" transform="translate(460.787109 0)"/>
    <use xlink:href="#DejaVuSans-67" transform="translate(522.066406 0)"/>
    <use xlink:href="#DejaVuSans-65" transform="translate(585.542969 0)"/>
    <use xlink:href="#DejaVuSans-73" transform="translate(647.066406 0)"/>
    <use xlink:href="#DejaVuSans-20" transform="translate(699.166016 0)"/>
    <use xlink:href="#DejaVuSans-73" transform="translate(730.953125 0)"/>
    <use xlink:href="#DejaVuSans-74" transform="translate(783.052734 0)"/>
    <use xlink:href="#DejaVuSans-72" transform="translate(822.261719 0)"/>
    <use xlink:href="#DejaVuSans-65" transform="translate(861.125 0)"/>
    <use xlink:href="#DejaVuSans-61" transform="translate(922.648438 0)"/>
    <use xlink:href="#DejaVuSans-6d" transform="translate(983.927734 0)"/>
    <use xlink:href="#DejaVuSans-20" transform="translate(1081.339844 0)"/>
    <use xlink:href="#DejaVuSans-65" transform="translate(1113.126953 0)"/>
    <use xlink:href="#DejaVuSans-78" transform="translate(1172.900391 0)"/>
    <use xlink:href="#DejaVuSans-63" transform="translate(1230.330078 0)"/>
    <use xlink:href="#DejaVuSans-65" transform="translate(1285.310547 0)"/>
    <use xlink:href="#DejaVuSans-72" transform="translate(1346.833984 0)"/>
    <use xlink:href="#DejaVuSans-70" transform="translate(1387.947266 0)"/>
    <use xlink:href="#DejaVuSans-74" transform="translate(1451.423828 0)"/>
    <use xlink:href="#DejaVuSans-20" transform="translate(1490.632812 0)"/>
    <use xlink:href="#DejaVuSans-73" transform="translate(1522.419922 0)"/>
    <use xlink:href="#DejaVuSans-68" transform="translate(1574.519531 0)"/>
    <use xlink:href="#DejaVuSans-61" transform="translate(1637.898438 0)"/>
    <use xlink:href="#DejaVuSans-70" transform="translate(1699.177734 0)"/>
    <use xlink:href="#DejaVuSans-65" transform="translate(1762.654297 0)"/>
   </g>
  </g>
 </g>
 <defs>
  <clipPath id="p27ac108418">
   <rect x="162" y="43.2" width="1004.4" height="277.2"/>
  </clipPath>
 </defs>
</svg>
